<?xml version="1.0" encoding="utf-8" standalone="no"?>
<!DOCTYPE svg PUBLIC "-//W3C//DTD SVG 1.1//EN"
  "http://www.w3.org/Graphics/SVG/1.1/DTD/svg11.dtd">
<!-- Created with matplotlib (https://matplotlib.org/) -->
<svg height="415.199639pt" version="1.1" viewBox="0 0 687.40875 415.199639" width="687.40875pt" xmlns="http://www.w3.org/2000/svg" xmlns:xlink="http://www.w3.org/1999/xlink">
 <defs>
  <style type="text/css">
*{stroke-linecap:butt;stroke-linejoin:round;}
  </style>
 </defs>
 <g id="figure_1">
  <g id="patch_1">
   <path d="M 0 415.199639 
L 687.40875 415.199639 
L 687.40875 0 
L 0 0 
z
" style="fill:#f0f0f0;"/>
  </g>
  <g id="axes_1">
   <g id="patch_2">
    <path d="M 53.80875 376.797188 
L 680.20875 376.797188 
L 680.20875 26.877187 
L 53.80875 26.877187 
z
" style="fill:#f0f0f0;"/>
   </g>
   <g id="matplotlib.axis_1">
    <g id="xtick_1">
     <g id="line2d_1">
      <path clip-path="url(#pd41098584f)" d="M 82.281477 376.797188 
L 82.281477 26.877187 
" style="fill:none;stroke:#cbcbcb;"/>
     </g>
     <g id="line2d_2"/>
     <g id="text_1">
      <!-- 2015 -->
      <defs>
       <path d="M 19.1875 8.296875 
L 53.609375 8.296875 
L 53.609375 0 
L 7.328125 0 
L 7.328125 8.296875 
Q 12.9375 14.109375 22.625 23.890625 
Q 32.328125 33.6875 34.8125 36.53125 
Q 39.546875 41.84375 41.421875 45.53125 
Q 43.3125 49.21875 43.3125 52.78125 
Q 43.3125 58.59375 39.234375 62.25 
Q 35.15625 65.921875 28.609375 65.921875 
Q 23.96875 65.921875 18.8125 64.3125 
Q 13.671875 62.703125 7.8125 59.421875 
L 7.8125 69.390625 
Q 13.765625 71.78125 18.9375 73 
Q 24.125 74.21875 28.421875 74.21875 
Q 39.75 74.21875 46.484375 68.546875 
Q 53.21875 62.890625 53.21875 53.421875 
Q 53.21875 48.921875 51.53125 44.890625 
Q 49.859375 40.875 45.40625 35.40625 
Q 44.1875 33.984375 37.640625 27.21875 
Q 31.109375 20.453125 19.1875 8.296875 
z
" id="DejaVuSans-50"/>
       <path d="M 31.78125 66.40625 
Q 24.171875 66.40625 20.328125 58.90625 
Q 16.5 51.421875 16.5 36.375 
Q 16.5 21.390625 20.328125 13.890625 
Q 24.171875 6.390625 31.78125 6.390625 
Q 39.453125 6.390625 43.28125 13.890625 
Q 47.125 21.390625 47.125 36.375 
Q 47.125 51.421875 43.28125 58.90625 
Q 39.453125 66.40625 31.78125 66.40625 
z
M 31.78125 74.21875 
Q 44.046875 74.21875 50.515625 64.515625 
Q 56.984375 54.828125 56.984375 36.375 
Q 56.984375 17.96875 50.515625 8.265625 
Q 44.046875 -1.421875 31.78125 -1.421875 
Q 19.53125 -1.421875 13.0625 8.265625 
Q 6.59375 17.96875 6.59375 36.375 
Q 6.59375 54.828125 13.0625 64.515625 
Q 19.53125 74.21875 31.78125 74.21875 
z
" id="DejaVuSans-48"/>
       <path d="M 12.40625 8.296875 
L 28.515625 8.296875 
L 28.515625 63.921875 
L 10.984375 60.40625 
L 10.984375 69.390625 
L 28.421875 72.90625 
L 38.28125 72.90625 
L 38.28125 8.296875 
L 54.390625 8.296875 
L 54.390625 0 
L 12.40625 0 
z
" id="DejaVuSans-49"/>
       <path d="M 10.796875 72.90625 
L 49.515625 72.90625 
L 49.515625 64.59375 
L 19.828125 64.59375 
L 19.828125 46.734375 
Q 21.96875 47.46875 24.109375 47.828125 
Q 26.265625 48.1875 28.421875 48.1875 
Q 40.625 48.1875 47.75 41.5 
Q 54.890625 34.8125 54.890625 23.390625 
Q 54.890625 11.625 47.5625 5.09375 
Q 40.234375 -1.421875 26.90625 -1.421875 
Q 22.3125 -1.421875 17.546875 -0.640625 
Q 12.796875 0.140625 7.71875 1.703125 
L 7.71875 11.625 
Q 12.109375 9.234375 16.796875 8.0625 
Q 21.484375 6.890625 26.703125 6.890625 
Q 35.15625 6.890625 40.078125 11.328125 
Q 45.015625 15.765625 45.015625 23.390625 
Q 45.015625 31 40.078125 35.4375 
Q 35.15625 39.890625 26.703125 39.890625 
Q 22.75 39.890625 18.8125 39.015625 
Q 14.890625 38.140625 10.796875 36.28125 
z
" id="DejaVuSans-53"/>
      </defs>
      <g transform="translate(69.556477 387.895625)scale(0.1 -0.1)">
       <use xlink:href="#DejaVuSans-50"/>
       <use x="63.623047" xlink:href="#DejaVuSans-48"/>
       <use x="127.246094" xlink:href="#DejaVuSans-49"/>
       <use x="190.869141" xlink:href="#DejaVuSans-53"/>
      </g>
     </g>
    </g>
    <g id="xtick_2">
     <g id="line2d_3">
      <path clip-path="url(#pd41098584f)" d="M 201.10467 376.797188 
L 201.10467 26.877187 
" style="fill:none;stroke:#cbcbcb;"/>
     </g>
     <g id="line2d_4"/>
     <g id="text_2">
      <!-- 2016 -->
      <defs>
       <path d="M 33.015625 40.375 
Q 26.375 40.375 22.484375 35.828125 
Q 18.609375 31.296875 18.609375 23.390625 
Q 18.609375 15.53125 22.484375 10.953125 
Q 26.375 6.390625 33.015625 6.390625 
Q 39.65625 6.390625 43.53125 10.953125 
Q 47.40625 15.53125 47.40625 23.390625 
Q 47.40625 31.296875 43.53125 35.828125 
Q 39.65625 40.375 33.015625 40.375 
z
M 52.59375 71.296875 
L 52.59375 62.3125 
Q 48.875 64.0625 45.09375 64.984375 
Q 41.3125 65.921875 37.59375 65.921875 
Q 27.828125 65.921875 22.671875 59.328125 
Q 17.53125 52.734375 16.796875 39.40625 
Q 19.671875 43.65625 24.015625 45.921875 
Q 28.375 48.1875 33.59375 48.1875 
Q 44.578125 48.1875 50.953125 41.515625 
Q 57.328125 34.859375 57.328125 23.390625 
Q 57.328125 12.15625 50.6875 5.359375 
Q 44.046875 -1.421875 33.015625 -1.421875 
Q 20.359375 -1.421875 13.671875 8.265625 
Q 6.984375 17.96875 6.984375 36.375 
Q 6.984375 53.65625 15.1875 63.9375 
Q 23.390625 74.21875 37.203125 74.21875 
Q 40.921875 74.21875 44.703125 73.484375 
Q 48.484375 72.75 52.59375 71.296875 
z
" id="DejaVuSans-54"/>
      </defs>
      <g transform="translate(188.37967 387.895625)scale(0.1 -0.1)">
       <use xlink:href="#DejaVuSans-50"/>
       <use x="63.623047" xlink:href="#DejaVuSans-48"/>
       <use x="127.246094" xlink:href="#DejaVuSans-49"/>
       <use x="190.869141" xlink:href="#DejaVuSans-54"/>
      </g>
     </g>
    </g>
    <g id="xtick_3">
     <g id="line2d_5">
      <path clip-path="url(#pd41098584f)" d="M 319.927862 376.797188 
L 319.927862 26.877187 
" style="fill:none;stroke:#cbcbcb;"/>
     </g>
     <g id="line2d_6"/>
     <g id="text_3">
      <!-- 2017 -->
      <defs>
       <path d="M 8.203125 72.90625 
L 55.078125 72.90625 
L 55.078125 68.703125 
L 28.609375 0 
L 18.3125 0 
L 43.21875 64.59375 
L 8.203125 64.59375 
z
" id="DejaVuSans-55"/>
      </defs>
      <g transform="translate(307.202862 387.895625)scale(0.1 -0.1)">
       <use xlink:href="#DejaVuSans-50"/>
       <use x="63.623047" xlink:href="#DejaVuSans-48"/>
       <use x="127.246094" xlink:href="#DejaVuSans-49"/>
       <use x="190.869141" xlink:href="#DejaVuSans-55"/>
      </g>
     </g>
    </g>
    <g id="xtick_4">
     <g id="line2d_7">
      <path clip-path="url(#pd41098584f)" d="M 438.751055 376.797188 
L 438.751055 26.877187 
" style="fill:none;stroke:#cbcbcb;"/>
     </g>
     <g id="line2d_8"/>
     <g id="text_4">
      <!-- 2018 -->
      <defs>
       <path d="M 31.78125 34.625 
Q 24.75 34.625 20.71875 30.859375 
Q 16.703125 27.09375 16.703125 20.515625 
Q 16.703125 13.921875 20.71875 10.15625 
Q 24.75 6.390625 31.78125 6.390625 
Q 38.8125 6.390625 42.859375 10.171875 
Q 46.921875 13.96875 46.921875 20.515625 
Q 46.921875 27.09375 42.890625 30.859375 
Q 38.875 34.625 31.78125 34.625 
z
M 21.921875 38.8125 
Q 15.578125 40.375 12.03125 44.71875 
Q 8.5 49.078125 8.5 55.328125 
Q 8.5 64.0625 14.71875 69.140625 
Q 20.953125 74.21875 31.78125 74.21875 
Q 42.671875 74.21875 48.875 69.140625 
Q 55.078125 64.0625 55.078125 55.328125 
Q 55.078125 49.078125 51.53125 44.71875 
Q 48 40.375 41.703125 38.8125 
Q 48.828125 37.15625 52.796875 32.3125 
Q 56.78125 27.484375 56.78125 20.515625 
Q 56.78125 9.90625 50.3125 4.234375 
Q 43.84375 -1.421875 31.78125 -1.421875 
Q 19.734375 -1.421875 13.25 4.234375 
Q 6.78125 9.90625 6.78125 20.515625 
Q 6.78125 27.484375 10.78125 32.3125 
Q 14.796875 37.15625 21.921875 38.8125 
z
M 18.3125 54.390625 
Q 18.3125 48.734375 21.84375 45.5625 
Q 25.390625 42.390625 31.78125 42.390625 
Q 38.140625 42.390625 41.71875 45.5625 
Q 45.3125 48.734375 45.3125 54.390625 
Q 45.3125 60.0625 41.71875 63.234375 
Q 38.140625 66.40625 31.78125 66.40625 
Q 25.390625 66.40625 21.84375 63.234375 
Q 18.3125 60.0625 18.3125 54.390625 
z
" id="DejaVuSans-56"/>
      </defs>
      <g transform="translate(426.026055 387.895625)scale(0.1 -0.1)">
       <use xlink:href="#DejaVuSans-50"/>
       <use x="63.623047" xlink:href="#DejaVuSans-48"/>
       <use x="127.246094" xlink:href="#DejaVuSans-49"/>
       <use x="190.869141" xlink:href="#DejaVuSans-56"/>
      </g>
     </g>
    </g>
    <g id="xtick_5">
     <g id="line2d_9">
      <path clip-path="url(#pd41098584f)" d="M 557.574247 376.797188 
L 557.574247 26.877187 
" style="fill:none;stroke:#cbcbcb;"/>
     </g>
     <g id="line2d_10"/>
     <g id="text_5">
      <!-- 2019 -->
      <defs>
       <path d="M 10.984375 1.515625 
L 10.984375 10.5 
Q 14.703125 8.734375 18.5 7.8125 
Q 22.3125 6.890625 25.984375 6.890625 
Q 35.75 6.890625 40.890625 13.453125 
Q 46.046875 20.015625 46.78125 33.40625 
Q 43.953125 29.203125 39.59375 26.953125 
Q 35.25 24.703125 29.984375 24.703125 
Q 19.046875 24.703125 12.671875 31.3125 
Q 6.296875 37.9375 6.296875 49.421875 
Q 6.296875 60.640625 12.9375 67.421875 
Q 19.578125 74.21875 30.609375 74.21875 
Q 43.265625 74.21875 49.921875 64.515625 
Q 56.59375 54.828125 56.59375 36.375 
Q 56.59375 19.140625 48.40625 8.859375 
Q 40.234375 -1.421875 26.421875 -1.421875 
Q 22.703125 -1.421875 18.890625 -0.6875 
Q 15.09375 0.046875 10.984375 1.515625 
z
M 30.609375 32.421875 
Q 37.25 32.421875 41.125 36.953125 
Q 45.015625 41.5 45.015625 49.421875 
Q 45.015625 57.28125 41.125 61.84375 
Q 37.25 66.40625 30.609375 66.40625 
Q 23.96875 66.40625 20.09375 61.84375 
Q 16.21875 57.28125 16.21875 49.421875 
Q 16.21875 41.5 20.09375 36.953125 
Q 23.96875 32.421875 30.609375 32.421875 
z
" id="DejaVuSans-57"/>
      </defs>
      <g transform="translate(544.849247 387.895625)scale(0.1 -0.1)">
       <use xlink:href="#DejaVuSans-50"/>
       <use x="63.623047" xlink:href="#DejaVuSans-48"/>
       <use x="127.246094" xlink:href="#DejaVuSans-49"/>
       <use x="190.869141" xlink:href="#DejaVuSans-57"/>
      </g>
     </g>
    </g>
    <g id="text_6">
     <!-- Year -->
     <defs>
      <path d="M -0.984375 72.90625 
L 19.578125 72.90625 
L 36.1875 46.921875 
L 52.78125 72.90625 
L 73.390625 72.90625 
L 45.609375 30.71875 
L 45.609375 0 
L 26.8125 0 
L 26.8125 30.71875 
z
" id="DejaVuSans-Bold-89"/>
      <path d="M 62.984375 27.484375 
L 62.984375 22.515625 
L 22.125 22.515625 
Q 22.75 16.359375 26.5625 13.28125 
Q 30.375 10.203125 37.203125 10.203125 
Q 42.71875 10.203125 48.5 11.84375 
Q 54.296875 13.484375 60.40625 16.796875 
L 60.40625 3.328125 
Q 54.203125 0.984375 48 -0.21875 
Q 41.796875 -1.421875 35.59375 -1.421875 
Q 20.75 -1.421875 12.515625 6.125 
Q 4.296875 13.671875 4.296875 27.296875 
Q 4.296875 40.671875 12.375 48.328125 
Q 20.453125 56 34.625 56 
Q 47.515625 56 55.25 48.234375 
Q 62.984375 40.484375 62.984375 27.484375 
z
M 45.015625 33.296875 
Q 45.015625 38.28125 42.109375 41.328125 
Q 39.203125 44.390625 34.515625 44.390625 
Q 29.4375 44.390625 26.265625 41.53125 
Q 23.09375 38.671875 22.3125 33.296875 
z
" id="DejaVuSans-Bold-101"/>
      <path d="M 32.90625 24.609375 
Q 27.4375 24.609375 24.671875 22.75 
Q 21.921875 20.90625 21.921875 17.28125 
Q 21.921875 13.96875 24.140625 12.078125 
Q 26.375 10.203125 30.328125 10.203125 
Q 35.25 10.203125 38.625 13.734375 
Q 42 17.28125 42 22.609375 
L 42 24.609375 
z
M 59.625 31.203125 
L 59.625 0 
L 42 0 
L 42 8.109375 
Q 38.484375 3.125 34.078125 0.84375 
Q 29.6875 -1.421875 23.390625 -1.421875 
Q 14.890625 -1.421875 9.59375 3.53125 
Q 4.296875 8.5 4.296875 16.40625 
Q 4.296875 26.03125 10.90625 30.515625 
Q 17.53125 35.015625 31.6875 35.015625 
L 42 35.015625 
L 42 36.375 
Q 42 40.53125 38.71875 42.453125 
Q 35.453125 44.390625 28.515625 44.390625 
Q 22.90625 44.390625 18.0625 43.265625 
Q 13.234375 42.140625 9.078125 39.890625 
L 9.078125 53.21875 
Q 14.703125 54.59375 20.359375 55.296875 
Q 26.03125 56 31.6875 56 
Q 46.484375 56 53.046875 50.171875 
Q 59.625 44.34375 59.625 31.203125 
z
" id="DejaVuSans-Bold-97"/>
      <path d="M 49.03125 39.796875 
Q 46.734375 40.875 44.453125 41.375 
Q 42.1875 41.890625 39.890625 41.890625 
Q 33.15625 41.890625 29.515625 37.5625 
Q 25.875 33.25 25.875 25.203125 
L 25.875 0 
L 8.40625 0 
L 8.40625 54.6875 
L 25.875 54.6875 
L 25.875 45.703125 
Q 29.25 51.078125 33.609375 53.53125 
Q 37.984375 56 44.09375 56 
Q 44.96875 56 45.984375 55.921875 
Q 47.015625 55.859375 48.96875 55.609375 
z
" id="DejaVuSans-Bold-114"/>
     </defs>
     <g transform="translate(349.655313 404.613125)scale(0.14 -0.14)">
      <use xlink:href="#DejaVuSans-Bold-89"/>
      <use x="63.287109" xlink:href="#DejaVuSans-Bold-101"/>
      <use x="131.109375" xlink:href="#DejaVuSans-Bold-97"/>
      <use x="198.589844" xlink:href="#DejaVuSans-Bold-114"/>
     </g>
    </g>
   </g>
   <g id="matplotlib.axis_2">
    <g id="ytick_1">
     <g id="line2d_11">
      <path clip-path="url(#pd41098584f)" d="M 53.80875 337.192116 
L 680.20875 337.192116 
" style="fill:none;stroke:#cbcbcb;"/>
     </g>
     <g id="line2d_12"/>
     <g id="text_7">
      <!-- 0 -->
      <g transform="translate(43.94625 340.991335)scale(0.1 -0.1)">
       <use xlink:href="#DejaVuSans-48"/>
      </g>
     </g>
    </g>
    <g id="ytick_2">
     <g id="line2d_13">
      <path clip-path="url(#pd41098584f)" d="M 53.80875 291.640459 
L 680.20875 291.640459 
" style="fill:none;stroke:#cbcbcb;"/>
     </g>
     <g id="line2d_14"/>
     <g id="text_8">
      <!-- 500 -->
      <g transform="translate(31.22125 295.439677)scale(0.1 -0.1)">
       <use xlink:href="#DejaVuSans-53"/>
       <use x="63.623047" xlink:href="#DejaVuSans-48"/>
       <use x="127.246094" xlink:href="#DejaVuSans-48"/>
      </g>
     </g>
    </g>
    <g id="ytick_3">
     <g id="line2d_15">
      <path clip-path="url(#pd41098584f)" d="M 53.80875 246.088801 
L 680.20875 246.088801 
" style="fill:none;stroke:#cbcbcb;"/>
     </g>
     <g id="line2d_16"/>
     <g id="text_9">
      <!-- 1000 -->
      <g transform="translate(24.85875 249.88802)scale(0.1 -0.1)">
       <use xlink:href="#DejaVuSans-49"/>
       <use x="63.623047" xlink:href="#DejaVuSans-48"/>
       <use x="127.246094" xlink:href="#DejaVuSans-48"/>
       <use x="190.869141" xlink:href="#DejaVuSans-48"/>
      </g>
     </g>
    </g>
    <g id="ytick_4">
     <g id="line2d_17">
      <path clip-path="url(#pd41098584f)" d="M 53.80875 200.537143 
L 680.20875 200.537143 
" style="fill:none;stroke:#cbcbcb;"/>
     </g>
     <g id="line2d_18"/>
     <g id="text_10">
      <!-- 1500 -->
      <g transform="translate(24.85875 204.336362)scale(0.1 -0.1)">
       <use xlink:href="#DejaVuSans-49"/>
       <use x="63.623047" xlink:href="#DejaVuSans-53"/>
       <use x="127.246094" xlink:href="#DejaVuSans-48"/>
       <use x="190.869141" xlink:href="#DejaVuSans-48"/>
      </g>
     </g>
    </g>
    <g id="ytick_5">
     <g id="line2d_19">
      <path clip-path="url(#pd41098584f)" d="M 53.80875 154.985485 
L 680.20875 154.985485 
" style="fill:none;stroke:#cbcbcb;"/>
     </g>
     <g id="line2d_20"/>
     <g id="text_11">
      <!-- 2000 -->
      <g transform="translate(24.85875 158.784704)scale(0.1 -0.1)">
       <use xlink:href="#DejaVuSans-50"/>
       <use x="63.623047" xlink:href="#DejaVuSans-48"/>
       <use x="127.246094" xlink:href="#DejaVuSans-48"/>
       <use x="190.869141" xlink:href="#DejaVuSans-48"/>
      </g>
     </g>
    </g>
    <g id="ytick_6">
     <g id="line2d_21">
      <path clip-path="url(#pd41098584f)" d="M 53.80875 109.433828 
L 680.20875 109.433828 
" style="fill:none;stroke:#cbcbcb;"/>
     </g>
     <g id="line2d_22"/>
     <g id="text_12">
      <!-- 2500 -->
      <g transform="translate(24.85875 113.233046)scale(0.1 -0.1)">
       <use xlink:href="#DejaVuSans-50"/>
       <use x="63.623047" xlink:href="#DejaVuSans-53"/>
       <use x="127.246094" xlink:href="#DejaVuSans-48"/>
       <use x="190.869141" xlink:href="#DejaVuSans-48"/>
      </g>
     </g>
    </g>
    <g id="ytick_7">
     <g id="line2d_23">
      <path clip-path="url(#pd41098584f)" d="M 53.80875 63.88217 
L 680.20875 63.88217 
" style="fill:none;stroke:#cbcbcb;"/>
     </g>
     <g id="line2d_24"/>
     <g id="text_13">
      <!-- 3000 -->
      <defs>
       <path d="M 40.578125 39.3125 
Q 47.65625 37.796875 51.625 33 
Q 55.609375 28.21875 55.609375 21.1875 
Q 55.609375 10.40625 48.1875 4.484375 
Q 40.765625 -1.421875 27.09375 -1.421875 
Q 22.515625 -1.421875 17.65625 -0.515625 
Q 12.796875 0.390625 7.625 2.203125 
L 7.625 11.71875 
Q 11.71875 9.328125 16.59375 8.109375 
Q 21.484375 6.890625 26.8125 6.890625 
Q 36.078125 6.890625 40.9375 10.546875 
Q 45.796875 14.203125 45.796875 21.1875 
Q 45.796875 27.640625 41.28125 31.265625 
Q 36.765625 34.90625 28.71875 34.90625 
L 20.21875 34.90625 
L 20.21875 43.015625 
L 29.109375 43.015625 
Q 36.375 43.015625 40.234375 45.921875 
Q 44.09375 48.828125 44.09375 54.296875 
Q 44.09375 59.90625 40.109375 62.90625 
Q 36.140625 65.921875 28.71875 65.921875 
Q 24.65625 65.921875 20.015625 65.03125 
Q 15.375 64.15625 9.8125 62.3125 
L 9.8125 71.09375 
Q 15.4375 72.65625 20.34375 73.4375 
Q 25.25 74.21875 29.59375 74.21875 
Q 40.828125 74.21875 47.359375 69.109375 
Q 53.90625 64.015625 53.90625 55.328125 
Q 53.90625 49.265625 50.4375 45.09375 
Q 46.96875 40.921875 40.578125 39.3125 
z
" id="DejaVuSans-51"/>
      </defs>
      <g transform="translate(24.85875 67.681389)scale(0.1 -0.1)">
       <use xlink:href="#DejaVuSans-51"/>
       <use x="63.623047" xlink:href="#DejaVuSans-48"/>
       <use x="127.246094" xlink:href="#DejaVuSans-48"/>
       <use x="190.869141" xlink:href="#DejaVuSans-48"/>
      </g>
     </g>
    </g>
    <g id="text_14">
     <!-- Cumulative Earnings -->
     <defs>
      <path d="M 67 4 
Q 61.8125 1.3125 56.203125 -0.046875 
Q 50.59375 -1.421875 44.484375 -1.421875 
Q 26.265625 -1.421875 15.625 8.765625 
Q 4.984375 18.953125 4.984375 36.375 
Q 4.984375 53.859375 15.625 64.03125 
Q 26.265625 74.21875 44.484375 74.21875 
Q 50.59375 74.21875 56.203125 72.84375 
Q 61.8125 71.484375 67 68.796875 
L 67 53.71875 
Q 61.765625 57.28125 56.6875 58.9375 
Q 51.609375 60.59375 46 60.59375 
Q 35.9375 60.59375 30.171875 54.140625 
Q 24.421875 47.703125 24.421875 36.375 
Q 24.421875 25.09375 30.171875 18.640625 
Q 35.9375 12.203125 46 12.203125 
Q 51.609375 12.203125 56.6875 13.859375 
Q 61.765625 15.53125 67 19.09375 
z
" id="DejaVuSans-Bold-67"/>
      <path d="M 7.8125 21.296875 
L 7.8125 54.6875 
L 25.390625 54.6875 
L 25.390625 49.21875 
Q 25.390625 44.78125 25.34375 38.0625 
Q 25.296875 31.34375 25.296875 29.109375 
Q 25.296875 22.515625 25.640625 19.609375 
Q 25.984375 16.703125 26.8125 15.375 
Q 27.875 13.671875 29.609375 12.734375 
Q 31.34375 11.8125 33.59375 11.8125 
Q 39.0625 11.8125 42.1875 16.015625 
Q 45.3125 20.21875 45.3125 27.6875 
L 45.3125 54.6875 
L 62.796875 54.6875 
L 62.796875 0 
L 45.3125 0 
L 45.3125 7.90625 
Q 41.359375 3.125 36.9375 0.84375 
Q 32.515625 -1.421875 27.203125 -1.421875 
Q 17.71875 -1.421875 12.765625 4.390625 
Q 7.8125 10.203125 7.8125 21.296875 
z
" id="DejaVuSans-Bold-117"/>
      <path d="M 59.078125 45.609375 
Q 62.40625 50.6875 66.96875 53.34375 
Q 71.53125 56 77 56 
Q 86.421875 56 91.359375 50.1875 
Q 96.296875 44.390625 96.296875 33.296875 
L 96.296875 0 
L 78.71875 0 
L 78.71875 28.515625 
Q 78.765625 29.15625 78.78125 29.828125 
Q 78.8125 30.515625 78.8125 31.78125 
Q 78.8125 37.59375 77.09375 40.203125 
Q 75.390625 42.828125 71.578125 42.828125 
Q 66.609375 42.828125 63.890625 38.71875 
Q 61.1875 34.625 61.078125 26.859375 
L 61.078125 0 
L 43.5 0 
L 43.5 28.515625 
Q 43.5 37.59375 41.9375 40.203125 
Q 40.375 42.828125 36.375 42.828125 
Q 31.34375 42.828125 28.609375 38.703125 
Q 25.875 34.578125 25.875 26.90625 
L 25.875 0 
L 8.296875 0 
L 8.296875 54.6875 
L 25.875 54.6875 
L 25.875 46.6875 
Q 29.109375 51.3125 33.28125 53.65625 
Q 37.453125 56 42.484375 56 
Q 48.140625 56 52.484375 53.265625 
Q 56.84375 50.53125 59.078125 45.609375 
z
" id="DejaVuSans-Bold-109"/>
      <path d="M 8.40625 75.984375 
L 25.875 75.984375 
L 25.875 0 
L 8.40625 0 
z
" id="DejaVuSans-Bold-108"/>
      <path d="M 27.484375 70.21875 
L 27.484375 54.6875 
L 45.515625 54.6875 
L 45.515625 42.1875 
L 27.484375 42.1875 
L 27.484375 19 
Q 27.484375 15.1875 29 13.84375 
Q 30.515625 12.5 35.015625 12.5 
L 44 12.5 
L 44 0 
L 29 0 
Q 18.65625 0 14.328125 4.3125 
Q 10.015625 8.640625 10.015625 19 
L 10.015625 42.1875 
L 1.3125 42.1875 
L 1.3125 54.6875 
L 10.015625 54.6875 
L 10.015625 70.21875 
z
" id="DejaVuSans-Bold-116"/>
      <path d="M 8.40625 54.6875 
L 25.875 54.6875 
L 25.875 0 
L 8.40625 0 
z
M 8.40625 75.984375 
L 25.875 75.984375 
L 25.875 61.71875 
L 8.40625 61.71875 
z
" id="DejaVuSans-Bold-105"/>
      <path d="M 1.515625 54.6875 
L 19 54.6875 
L 32.625 16.890625 
L 46.1875 54.6875 
L 63.71875 54.6875 
L 42.1875 0 
L 23 0 
z
" id="DejaVuSans-Bold-118"/>
      <path id="DejaVuSans-Bold-32"/>
      <path d="M 9.1875 72.90625 
L 59.90625 72.90625 
L 59.90625 58.6875 
L 27.984375 58.6875 
L 27.984375 45.125 
L 58.015625 45.125 
L 58.015625 30.90625 
L 27.984375 30.90625 
L 27.984375 14.203125 
L 60.984375 14.203125 
L 60.984375 0 
L 9.1875 0 
z
" id="DejaVuSans-Bold-69"/>
      <path d="M 63.375 33.296875 
L 63.375 0 
L 45.796875 0 
L 45.796875 5.421875 
L 45.796875 25.484375 
Q 45.796875 32.5625 45.484375 35.25 
Q 45.171875 37.9375 44.390625 39.203125 
Q 43.359375 40.921875 41.59375 41.875 
Q 39.84375 42.828125 37.59375 42.828125 
Q 32.125 42.828125 29 38.59375 
Q 25.875 34.375 25.875 26.90625 
L 25.875 0 
L 8.40625 0 
L 8.40625 54.6875 
L 25.875 54.6875 
L 25.875 46.6875 
Q 29.828125 51.46875 34.265625 53.734375 
Q 38.71875 56 44.09375 56 
Q 53.5625 56 58.46875 50.1875 
Q 63.375 44.390625 63.375 33.296875 
z
" id="DejaVuSans-Bold-110"/>
      <path d="M 45.609375 9.28125 
Q 42 4.5 37.640625 2.25 
Q 33.296875 0 27.59375 0 
Q 17.578125 0 11.03125 7.875 
Q 4.5 15.765625 4.5 27.984375 
Q 4.5 40.234375 11.03125 48.0625 
Q 17.578125 55.90625 27.59375 55.90625 
Q 33.296875 55.90625 37.640625 53.65625 
Q 42 51.421875 45.609375 46.578125 
L 45.609375 54.6875 
L 63.1875 54.6875 
L 63.1875 5.515625 
Q 63.1875 -7.671875 54.859375 -14.625 
Q 46.53125 -21.578125 30.71875 -21.578125 
Q 25.59375 -21.578125 20.796875 -20.796875 
Q 16.015625 -20.015625 11.1875 -18.40625 
L 11.1875 -4.78125 
Q 15.765625 -7.421875 20.15625 -8.71875 
Q 24.5625 -10.015625 29 -10.015625 
Q 37.59375 -10.015625 41.59375 -6.25 
Q 45.609375 -2.484375 45.609375 5.515625 
z
M 34.078125 43.3125 
Q 28.65625 43.3125 25.625 39.296875 
Q 22.609375 35.296875 22.609375 27.984375 
Q 22.609375 20.453125 25.53125 16.578125 
Q 28.46875 12.703125 34.078125 12.703125 
Q 39.546875 12.703125 42.578125 16.703125 
Q 45.609375 20.703125 45.609375 27.984375 
Q 45.609375 35.296875 42.578125 39.296875 
Q 39.546875 43.3125 34.078125 43.3125 
z
" id="DejaVuSans-Bold-103"/>
      <path d="M 51.125 52.984375 
L 51.125 39.703125 
Q 45.515625 42.046875 40.28125 43.21875 
Q 35.0625 44.390625 30.421875 44.390625 
Q 25.4375 44.390625 23.015625 43.140625 
Q 20.609375 41.890625 20.609375 39.3125 
Q 20.609375 37.203125 22.4375 36.078125 
Q 24.265625 34.96875 29 34.421875 
L 32.078125 33.984375 
Q 45.515625 32.28125 50.140625 28.375 
Q 54.78125 24.46875 54.78125 16.109375 
Q 54.78125 7.375 48.328125 2.96875 
Q 41.890625 -1.421875 29.109375 -1.421875 
Q 23.6875 -1.421875 17.890625 -0.5625 
Q 12.109375 0.296875 6 2 
L 6 15.28125 
Q 11.234375 12.75 16.71875 11.46875 
Q 22.21875 10.203125 27.875 10.203125 
Q 33.015625 10.203125 35.59375 11.609375 
Q 38.1875 13.03125 38.1875 15.828125 
Q 38.1875 18.171875 36.40625 19.3125 
Q 34.625 20.453125 29.296875 21.09375 
L 26.21875 21.484375 
Q 14.546875 22.953125 9.859375 26.90625 
Q 5.171875 30.859375 5.171875 38.921875 
Q 5.171875 47.609375 11.125 51.796875 
Q 17.09375 56 29.390625 56 
Q 34.234375 56 39.546875 55.265625 
Q 44.875 54.546875 51.125 52.984375 
z
" id="DejaVuSans-Bold-115"/>
     </defs>
     <g transform="translate(17.837813 283.352188)rotate(-90)scale(0.14 -0.14)">
      <use xlink:href="#DejaVuSans-Bold-67"/>
      <use x="73.388672" xlink:href="#DejaVuSans-Bold-117"/>
      <use x="144.580078" xlink:href="#DejaVuSans-Bold-109"/>
      <use x="248.779297" xlink:href="#DejaVuSans-Bold-117"/>
      <use x="319.970703" xlink:href="#DejaVuSans-Bold-108"/>
      <use x="354.248047" xlink:href="#DejaVuSans-Bold-97"/>
      <use x="421.728516" xlink:href="#DejaVuSans-Bold-116"/>
      <use x="469.53125" xlink:href="#DejaVuSans-Bold-105"/>
      <use x="503.808594" xlink:href="#DejaVuSans-Bold-118"/>
      <use x="568.994141" xlink:href="#DejaVuSans-Bold-101"/>
      <use x="636.816406" xlink:href="#DejaVuSans-Bold-32"/>
      <use x="671.630859" xlink:href="#DejaVuSans-Bold-69"/>
      <use x="739.941406" xlink:href="#DejaVuSans-Bold-97"/>
      <use x="807.421875" xlink:href="#DejaVuSans-Bold-114"/>
      <use x="856.738281" xlink:href="#DejaVuSans-Bold-110"/>
      <use x="927.929688" xlink:href="#DejaVuSans-Bold-105"/>
      <use x="962.207031" xlink:href="#DejaVuSans-Bold-110"/>
      <use x="1033.398438" xlink:href="#DejaVuSans-Bold-103"/>
      <use x="1104.980469" xlink:href="#DejaVuSans-Bold-115"/>
     </g>
    </g>
   </g>
   <g id="PolyCollection_1">
    <path clip-path="url(#pd41098584f)" d="M 82.281477 337.192116 
L 82.281477 337.192116 
L 84.523424 337.192116 
L 86.765371 337.192116 
L 87.659011 337.192116 
L 86.765371 333.560738 
L 84.523424 324.450407 
L 82.281477 330.821262 
z
" style="fill:#008000;fill-opacity:0.25;stroke:#008000;stroke-opacity:0.25;stroke-width:0.5;"/>
    <path clip-path="url(#pd41098584f)" d="M 110.517946 337.192116 
L 111.426789 337.192116 
L 112.224025 337.192116 
L 111.426789 333.952483 
z
" style="fill:#008000;fill-opacity:0.25;stroke:#008000;stroke-opacity:0.25;stroke-width:0.5;"/>
    <path clip-path="url(#pd41098584f)" d="M 114.738892 337.192116 
L 115.910683 337.192116 
L 118.15263 337.192116 
L 120.394577 337.192116 
L 122.636524 337.192116 
L 124.878471 337.192116 
L 127.120418 337.192116 
L 129.362365 337.192116 
L 131.604312 337.192116 
L 133.846259 337.192116 
L 136.088206 337.192116 
L 138.330153 337.192116 
L 140.5721 337.192116 
L 142.814047 337.192116 
L 145.055994 337.192116 
L 147.297941 337.192116 
L 149.539888 337.192116 
L 151.781835 337.192116 
L 154.023782 337.192116 
L 156.265729 337.192116 
L 158.507676 337.192116 
L 160.749623 337.192116 
L 162.99157 337.192116 
L 165.233517 337.192116 
L 167.475464 337.192116 
L 169.717411 337.192116 
L 171.959358 337.192116 
L 174.201305 337.192116 
L 176.443253 337.192116 
L 178.6852 337.192116 
L 180.927147 337.192116 
L 183.169094 337.192116 
L 185.411041 337.192116 
L 187.652988 337.192116 
L 189.894935 337.192116 
L 192.136882 337.192116 
L 194.378829 337.192116 
L 196.620776 337.192116 
L 198.862723 337.192116 
L 201.10467 337.192116 
L 203.346617 337.192116 
L 205.588564 337.192116 
L 207.830511 337.192116 
L 210.072458 337.192116 
L 212.314405 337.192116 
L 214.556352 337.192116 
L 216.798299 337.192116 
L 219.040246 337.192116 
L 221.282193 337.192116 
L 223.52414 337.192116 
L 225.766087 337.192116 
L 228.008034 337.192116 
L 230.249981 337.192116 
L 232.491928 337.192116 
L 234.733875 337.192116 
L 236.975822 337.192116 
L 239.217769 337.192116 
L 241.459716 337.192116 
L 243.701663 337.192116 
L 245.94361 337.192116 
L 248.185557 337.192116 
L 250.427504 337.192116 
L 252.669452 337.192116 
L 254.911399 337.192116 
L 257.153346 337.192116 
L 259.395293 337.192116 
L 261.63724 337.192116 
L 263.879187 337.192116 
L 266.121134 337.192116 
L 268.363081 337.192116 
L 270.605028 337.192116 
L 272.846975 337.192116 
L 275.088922 337.192116 
L 277.330869 337.192116 
L 279.572816 337.192116 
L 281.814763 337.192116 
L 284.05671 337.192116 
L 286.298657 337.192116 
L 288.540604 337.192116 
L 290.782551 337.192116 
L 293.024498 337.192116 
L 295.266445 337.192116 
L 297.508392 337.192116 
L 299.750339 337.192116 
L 301.992286 337.192116 
L 304.234233 337.192116 
L 306.47618 337.192116 
L 308.718127 337.192116 
L 310.960074 337.192116 
L 313.202021 337.192116 
L 315.443968 337.192116 
L 317.685915 337.192116 
L 319.927862 337.192116 
L 322.169809 337.192116 
L 324.411756 337.192116 
L 326.653703 337.192116 
L 328.895651 337.192116 
L 331.137598 337.192116 
L 333.379545 337.192116 
L 335.621492 337.192116 
L 337.863439 337.192116 
L 340.105386 337.192116 
L 342.347333 337.192116 
L 344.58928 337.192116 
L 346.831227 337.192116 
L 349.073174 337.192116 
L 351.315121 337.192116 
L 353.557068 337.192116 
L 355.799015 337.192116 
L 358.040962 337.192116 
L 360.282909 337.192116 
L 362.524856 337.192116 
L 364.766803 337.192116 
L 367.00875 337.192116 
L 369.250697 337.192116 
L 371.492644 337.192116 
L 373.734591 337.192116 
L 375.976538 337.192116 
L 378.218485 337.192116 
L 380.460432 337.192116 
L 382.702379 337.192116 
L 384.944326 337.192116 
L 387.186273 337.192116 
L 389.42822 337.192116 
L 391.670167 337.192116 
L 393.912114 337.192116 
L 396.154061 337.192116 
L 398.396008 337.192116 
L 400.637955 337.192116 
L 402.879902 337.192116 
L 405.121849 337.192116 
L 407.363797 337.192116 
L 409.605744 337.192116 
L 411.847691 337.192116 
L 414.089638 337.192116 
L 416.331585 337.192116 
L 418.573532 337.192116 
L 420.815479 337.192116 
L 423.057426 337.192116 
L 425.299373 337.192116 
L 427.54132 337.192116 
L 429.783267 337.192116 
L 432.025214 337.192116 
L 434.267161 337.192116 
L 436.509108 337.192116 
L 438.751055 337.192116 
L 440.993002 337.192116 
L 443.234949 337.192116 
L 445.476896 337.192116 
L 447.718843 337.192116 
L 449.96079 337.192116 
L 452.202737 337.192116 
L 454.444684 337.192116 
L 456.686631 337.192116 
L 458.928578 337.192116 
L 461.170525 337.192116 
L 463.412472 337.192116 
L 465.654419 337.192116 
L 467.896366 337.192116 
L 470.138313 337.192116 
L 472.38026 337.192116 
L 474.622207 337.192116 
L 476.864154 337.192116 
L 479.106101 337.192116 
L 481.348048 337.192116 
L 483.589996 337.192116 
L 485.831943 337.192116 
L 488.07389 337.192116 
L 490.315837 337.192116 
L 492.557784 337.192116 
L 494.799731 337.192116 
L 497.041678 337.192116 
L 499.283625 337.192116 
L 501.525572 337.192116 
L 503.767519 337.192116 
L 506.009466 337.192116 
L 508.251413 337.192116 
L 510.49336 337.192116 
L 512.735307 337.192116 
L 514.977254 337.192116 
L 517.219201 337.192116 
L 519.461148 337.192116 
L 521.703095 337.192116 
L 523.945042 337.192116 
L 526.186989 337.192116 
L 528.428936 337.192116 
L 530.670883 337.192116 
L 532.91283 337.192116 
L 535.154777 337.192116 
L 537.396724 337.192116 
L 539.638671 337.192116 
L 541.880618 337.192116 
L 544.122565 337.192116 
L 546.364512 337.192116 
L 548.606459 337.192116 
L 550.848406 337.192116 
L 553.090353 337.192116 
L 555.3323 337.192116 
L 557.574247 337.192116 
L 559.816195 337.192116 
L 562.058142 337.192116 
L 564.300089 337.192116 
L 566.542036 337.192116 
L 568.783983 337.192116 
L 571.02593 337.192116 
L 573.267877 337.192116 
L 575.509824 337.192116 
L 577.751771 337.192116 
L 579.993718 337.192116 
L 582.235665 337.192116 
L 584.477612 337.192116 
L 586.719559 337.192116 
L 588.961506 337.192116 
L 591.203453 337.192116 
L 593.4454 337.192116 
L 595.687347 337.192116 
L 597.929294 337.192116 
L 600.171241 337.192116 
L 602.413188 337.192116 
L 604.655135 337.192116 
L 606.897082 337.192116 
L 609.139029 337.192116 
L 611.380976 337.192116 
L 613.622923 337.192116 
L 615.86487 337.192116 
L 618.106817 337.192116 
L 620.348764 337.192116 
L 622.590711 337.192116 
L 624.832658 337.192116 
L 627.074605 337.192116 
L 629.316552 337.192116 
L 631.558499 337.192116 
L 633.800446 337.192116 
L 636.042394 337.192116 
L 638.284341 337.192116 
L 640.526288 337.192116 
L 642.768235 337.192116 
L 645.010182 337.192116 
L 647.252129 337.192116 
L 649.494076 337.192116 
L 651.736023 337.192116 
L 651.736023 337.192116 
L 651.736023 83.381013 
L 649.494076 85.428104 
L 647.252129 76.317772 
L 645.010182 67.207441 
L 642.768235 58.097109 
L 640.526288 69.029507 
L 638.284341 59.919176 
L 636.042394 50.808844 
L 633.800446 53.411666 
L 631.558499 57.355528 
L 629.316552 60.2845 
L 627.074605 67.032523 
L 624.832658 71.230563 
L 622.590711 75.428604 
L 620.348764 66.318273 
L 618.106817 57.207941 
L 615.86487 48.097609 
L 613.622923 52.817672 
L 611.380976 57.261692 
L 609.139029 59.192171 
L 606.897082 61.952602 
L 604.655135 52.84227 
L 602.413188 43.731939 
L 600.171241 56.759713 
L 597.929294 59.362534 
L 595.687347 63.560575 
L 593.4454 77.408279 
L 591.203453 80.011101 
L 588.961506 81.723843 
L 586.719559 83.898479 
L 584.477612 87.842342 
L 582.235665 90.771313 
L 579.993718 96.42974 
L 577.751771 97.626838 
L 575.509824 88.516506 
L 573.267877 79.406175 
L 571.02593 82.008997 
L 568.783983 83.441141 
L 566.542036 74.330809 
L 564.300089 76.043552 
L 562.058142 82.037239 
L 559.816195 86.757301 
L 557.574247 88.277816 
L 555.3323 100.576763 
L 553.090353 101.23544 
L 550.848406 102.023484 
L 548.606459 103.953963 
L 546.364512 105.016228 
L 544.122565 95.905896 
L 541.880618 95.905896 
L 539.638671 86.795565 
L 537.396724 90.739427 
L 535.154777 92.351956 
L 532.91283 94.064698 
L 530.670883 95.677227 
L 528.428936 86.566895 
L 526.186989 88.179424 
L 523.945042 94.550279 
L 521.703095 97.310709 
L 519.461148 103.681564 
L 517.219201 107.625427 
L 514.977254 98.515095 
L 512.735307 89.404764 
L 510.49336 80.294432 
L 508.251413 82.007175 
L 506.009466 84.609996 
L 503.767519 75.499665 
L 501.525572 77.430144 
L 499.283625 79.360623 
L 497.041678 70.250292 
L 494.799731 61.13996 
L 492.557784 52.029629 
L 490.315837 58.400483 
L 488.07389 49.290152 
L 485.831943 51.892974 
L 483.589996 42.782642 
L 481.348048 45.385464 
L 479.106101 49.104301 
L 476.864154 60.036699 
L 474.622207 72.335647 
L 472.38026 80.327229 
L 470.138313 83.627903 
L 467.896366 88.955624 
L 465.654419 79.845293 
L 463.412472 85.83898 
L 461.170525 96.224758 
L 458.928578 102.972781 
L 456.686631 110.56442 
L 454.444684 101.454088 
L 452.202737 92.343757 
L 449.96079 96.287619 
L 447.718843 102.281306 
L 445.476896 109.029329 
L 443.234949 99.918997 
L 440.993002 104.117038 
L 438.751055 95.006707 
L 436.509108 85.896375 
L 434.267161 99.744079 
L 432.025214 102.504509 
L 429.783267 93.394178 
L 427.54132 93.394178 
L 425.299373 101.385761 
L 423.057426 105.829781 
L 420.815479 96.719449 
L 418.573532 101.725576 
L 416.331585 106.445639 
L 414.089638 97.335307 
L 411.847691 102.05537 
L 409.605744 103.873792 
L 407.363797 94.763461 
L 405.121849 98.961502 
L 402.879902 102.680339 
L 400.637955 93.570007 
L 398.396008 84.459676 
L 396.154061 91.207698 
L 393.912114 93.026121 
L 391.670167 95.786551 
L 389.42822 86.676219 
L 387.186273 90.620082 
L 384.944326 92.332824 
L 382.702379 96.051662 
L 380.460432 99.770499 
L 378.218485 106.141354 
L 375.976538 97.031022 
L 373.734591 87.920691 
L 371.492644 90.523512 
L 369.250697 93.126334 
L 367.00875 99.874357 
L 364.766803 90.764025 
L 362.524856 81.653694 
L 360.282909 84.102551 
L 358.040962 86.03303 
L 355.799015 88.481887 
L 353.557068 92.679928 
L 351.315121 97.399991 
L 349.073174 88.289659 
L 346.831227 90.464295 
L 344.58928 81.353964 
L 342.347333 85.072801 
L 340.105386 91.066488 
L 337.863439 99.058071 
L 335.621492 106.64971 
L 333.379545 111.09373 
L 331.137598 117.464585 
L 328.895651 121.183422 
L 326.653703 112.073091 
L 324.411756 122.458869 
L 322.169809 128.829724 
L 319.927862 130.648146 
L 317.685915 134.592008 
L 315.443968 138.310846 
L 313.202021 143.638567 
L 310.960074 146.398998 
L 308.718127 137.288666 
L 306.47618 139.595402 
L 304.234233 145.966257 
L 301.992286 150.68632 
L 299.750339 141.575988 
L 297.508392 132.465657 
L 295.266445 123.355325 
L 293.024498 125.173747 
L 290.782551 131.167435 
L 288.540604 133.770256 
L 286.298657 146.79803 
L 284.05671 152.125752 
L 281.814763 158.496607 
L 279.572816 164.490294 
L 277.330869 166.420774 
L 275.088922 175.531105 
L 272.846975 179.249942 
L 270.605028 183.447983 
L 268.363081 186.748656 
L 266.121134 189.351478 
L 263.879187 194.071541 
L 261.63724 197.575374 
L 259.395293 199.393797 
L 257.153346 212.421571 
L 254.911399 216.140408 
L 252.669452 221.146535 
L 250.427504 225.090398 
L 248.185557 229.03426 
L 245.94361 219.923929 
L 243.701663 226.671951 
L 241.459716 233.042806 
L 239.217769 235.491663 
L 236.975822 247.061784 
L 234.733875 261.729418 
L 232.491928 252.619087 
L 230.249981 256.337924 
L 228.008034 247.227592 
L 225.766087 238.117261 
L 223.52414 229.006929 
L 221.282193 231.76736 
L 219.040246 235.486197 
L 216.798299 241.144624 
L 214.556352 232.034292 
L 212.314405 238.782315 
L 210.072458 246.373954 
L 207.830511 249.134385 
L 205.588564 255.50524 
L 203.346617 261.163667 
L 201.10467 252.053335 
L 198.862723 258.047022 
L 196.620776 263.705449 
L 194.378829 270.453472 
L 192.136882 275.781194 
L 189.894935 279.979234 
L 187.652988 282.428091 
L 185.411041 288.798946 
L 183.169094 294.792633 
L 180.927147 297.395455 
L 178.6852 299.108197 
L 176.443253 312.135972 
L 174.201305 313.848714 
L 171.959358 304.738382 
L 169.717411 308.682245 
L 167.475464 299.571913 
L 165.233517 303.769954 
L 162.99157 310.517977 
L 160.749623 313.627333 
L 158.507676 327.475037 
L 156.265729 318.364705 
L 154.023782 326.356288 
L 151.781835 330.300151 
L 149.539888 321.189819 
L 147.297941 327.937842 
L 145.055994 318.82751 
L 142.814047 309.717179 
L 140.5721 315.375605 
L 138.330153 318.879439 
L 136.088206 309.769107 
L 133.846259 312.217965 
L 131.604312 318.211652 
L 129.362365 309.10132 
L 127.120418 313.54534 
L 124.878471 319.916195 
L 122.636524 324.360214 
L 120.394577 315.249883 
L 118.15263 326.820004 
L 115.910683 330.763867 
z
" style="fill:#008000;fill-opacity:0.25;stroke:#008000;stroke-opacity:0.25;stroke-width:0.5;"/>
   </g>
   <g id="PolyCollection_2">
    <path clip-path="url(#pd41098584f)" d="M 87.659011 337.192116 
L 89.007318 337.192116 
L 91.249265 337.192116 
L 93.491212 337.192116 
L 95.733159 337.192116 
L 97.975106 337.192116 
L 100.217054 337.192116 
L 102.459001 337.192116 
L 104.700948 337.192116 
L 106.942895 337.192116 
L 109.184842 337.192116 
L 110.517946 337.192116 
L 109.184842 341.944065 
L 106.942895 348.692088 
L 104.700948 355.062943 
L 102.459001 357.991914 
L 100.217054 348.881583 
L 97.975106 354.87527 
L 95.733159 359.073311 
L 93.491212 360.891733 
L 91.249265 351.781401 
L 89.007318 342.67107 
z
" style="fill:#ff0000;fill-opacity:0.25;stroke:#ff0000;stroke-opacity:0.25;stroke-width:0.5;"/>
    <path clip-path="url(#pd41098584f)" d="M 112.224025 337.192116 
L 113.668736 337.192116 
L 114.738892 337.192116 
L 113.668736 343.062814 
z
" style="fill:#ff0000;fill-opacity:0.25;stroke:#ff0000;stroke-opacity:0.25;stroke-width:0.5;"/>
   </g>
   <g id="line2d_25">
    <path clip-path="url(#pd41098584f)" d="M 82.281477 330.821262 
L 84.523424 324.450407 
L 93.491212 360.891733 
L 95.733159 359.073311 
L 97.975106 354.87527 
L 100.217054 348.881583 
L 102.459001 357.991914 
L 104.700948 355.062943 
L 106.942895 348.692088 
L 109.184842 341.944065 
L 111.426789 333.952483 
L 113.668736 343.062814 
L 115.910683 330.763867 
L 118.15263 326.820004 
L 120.394577 315.249883 
L 122.636524 324.360214 
L 124.878471 319.916195 
L 127.120418 313.54534 
L 129.362365 309.10132 
L 131.604312 318.211652 
L 133.846259 312.217965 
L 136.088206 309.769107 
L 138.330153 318.879439 
L 140.5721 315.375605 
L 142.814047 309.717179 
L 147.297941 327.937842 
L 149.539888 321.189819 
L 151.781835 330.300151 
L 154.023782 326.356288 
L 156.265729 318.364705 
L 158.507676 327.475037 
L 160.749623 313.627333 
L 162.99157 310.517977 
L 165.233517 303.769954 
L 167.475464 299.571913 
L 169.717411 308.682245 
L 171.959358 304.738382 
L 174.201305 313.848714 
L 176.443253 312.135972 
L 178.6852 299.108197 
L 180.927147 297.395455 
L 183.169094 294.792633 
L 185.411041 288.798946 
L 187.652988 282.428091 
L 189.894935 279.979234 
L 192.136882 275.781194 
L 194.378829 270.453472 
L 196.620776 263.705449 
L 198.862723 258.047022 
L 201.10467 252.053335 
L 203.346617 261.163667 
L 205.588564 255.50524 
L 207.830511 249.134385 
L 210.072458 246.373954 
L 212.314405 238.782315 
L 214.556352 232.034292 
L 216.798299 241.144624 
L 219.040246 235.486197 
L 221.282193 231.76736 
L 223.52414 229.006929 
L 230.249981 256.337924 
L 232.491928 252.619087 
L 234.733875 261.729418 
L 236.975822 247.061784 
L 239.217769 235.491663 
L 241.459716 233.042806 
L 243.701663 226.671951 
L 245.94361 219.923929 
L 248.185557 229.03426 
L 252.669452 221.146535 
L 254.911399 216.140408 
L 257.153346 212.421571 
L 259.395293 199.393797 
L 261.63724 197.575374 
L 263.879187 194.071541 
L 266.121134 189.351478 
L 268.363081 186.748656 
L 270.605028 183.447983 
L 272.846975 179.249942 
L 275.088922 175.531105 
L 277.330869 166.420774 
L 279.572816 164.490294 
L 281.814763 158.496607 
L 284.05671 152.125752 
L 286.298657 146.79803 
L 288.540604 133.770256 
L 290.782551 131.167435 
L 293.024498 125.173747 
L 295.266445 123.355325 
L 301.992286 150.68632 
L 304.234233 145.966257 
L 306.47618 139.595402 
L 308.718127 137.288666 
L 310.960074 146.398998 
L 313.202021 143.638567 
L 315.443968 138.310846 
L 317.685915 134.592008 
L 319.927862 130.648146 
L 322.169809 128.829724 
L 324.411756 122.458869 
L 326.653703 112.073091 
L 328.895651 121.183422 
L 331.137598 117.464585 
L 333.379545 111.09373 
L 335.621492 106.64971 
L 337.863439 99.058071 
L 340.105386 91.066488 
L 342.347333 85.072801 
L 344.58928 81.353964 
L 346.831227 90.464295 
L 349.073174 88.289659 
L 351.315121 97.399991 
L 353.557068 92.679928 
L 355.799015 88.481887 
L 358.040962 86.03303 
L 360.282909 84.102551 
L 362.524856 81.653694 
L 367.00875 99.874357 
L 369.250697 93.126334 
L 373.734591 87.920691 
L 378.218485 106.141354 
L 380.460432 99.770499 
L 384.944326 92.332824 
L 387.186273 90.620082 
L 389.42822 86.676219 
L 391.670167 95.786551 
L 393.912114 93.026121 
L 396.154061 91.207698 
L 398.396008 84.459676 
L 402.879902 102.680339 
L 405.121849 98.961502 
L 407.363797 94.763461 
L 409.605744 103.873792 
L 411.847691 102.05537 
L 414.089638 97.335307 
L 416.331585 106.445639 
L 418.573532 101.725576 
L 420.815479 96.719449 
L 423.057426 105.829781 
L 425.299373 101.385761 
L 427.54132 93.394178 
L 429.783267 93.394178 
L 432.025214 102.504509 
L 434.267161 99.744079 
L 436.509108 85.896375 
L 440.993002 104.117038 
L 443.234949 99.918997 
L 445.476896 109.029329 
L 447.718843 102.281306 
L 449.96079 96.287619 
L 452.202737 92.343757 
L 456.686631 110.56442 
L 458.928578 102.972781 
L 461.170525 96.224758 
L 463.412472 85.83898 
L 465.654419 79.845293 
L 467.896366 88.955624 
L 470.138313 83.627903 
L 472.38026 80.327229 
L 474.622207 72.335647 
L 476.864154 60.036699 
L 479.106101 49.104301 
L 481.348048 45.385464 
L 483.589996 42.782642 
L 485.831943 51.892974 
L 488.07389 49.290152 
L 490.315837 58.400483 
L 492.557784 52.029629 
L 499.283625 79.360623 
L 503.767519 75.499665 
L 506.009466 84.609996 
L 508.251413 82.007175 
L 510.49336 80.294432 
L 517.219201 107.625427 
L 519.461148 103.681564 
L 521.703095 97.310709 
L 523.945042 94.550279 
L 526.186989 88.179424 
L 528.428936 86.566895 
L 530.670883 95.677227 
L 537.396724 90.739427 
L 539.638671 86.795565 
L 541.880618 95.905896 
L 544.122565 95.905896 
L 546.364512 105.016228 
L 548.606459 103.953963 
L 550.848406 102.023484 
L 553.090353 101.23544 
L 555.3323 100.576763 
L 557.574247 88.277816 
L 559.816195 86.757301 
L 562.058142 82.037239 
L 564.300089 76.043552 
L 566.542036 74.330809 
L 568.783983 83.441141 
L 571.02593 82.008997 
L 573.267877 79.406175 
L 577.751771 97.626838 
L 579.993718 96.42974 
L 582.235665 90.771313 
L 584.477612 87.842342 
L 586.719559 83.898479 
L 588.961506 81.723843 
L 591.203453 80.011101 
L 593.4454 77.408279 
L 595.687347 63.560575 
L 597.929294 59.362534 
L 600.171241 56.759713 
L 602.413188 43.731939 
L 606.897082 61.952602 
L 609.139029 59.192171 
L 611.380976 57.261692 
L 613.622923 52.817672 
L 615.86487 48.097609 
L 622.590711 75.428604 
L 627.074605 67.032523 
L 629.316552 60.2845 
L 631.558499 57.355528 
L 633.800446 53.411666 
L 636.042394 50.808844 
L 640.526288 69.029507 
L 642.768235 58.097109 
L 649.494076 85.428104 
L 651.736023 83.381013 
L 651.736023 83.381013 
" style="fill:none;stroke:#000000;stroke-width:2;"/>
   </g>
   <g id="line2d_26">
    <path clip-path="url(#pd41098584f)" d="M 53.80875 337.192116 
L 680.20875 337.192116 
" style="fill:none;stroke:#000000;"/>
   </g>
   <g id="patch_3">
    <path d="M 53.80875 376.797188 
L 53.80875 26.877187 
" style="fill:none;stroke:#f0f0f0;stroke-linecap:square;stroke-linejoin:miter;stroke-width:3;"/>
   </g>
   <g id="patch_4">
    <path d="M 680.20875 376.797188 
L 680.20875 26.877187 
" style="fill:none;stroke:#f0f0f0;stroke-linecap:square;stroke-linejoin:miter;stroke-width:3;"/>
   </g>
   <g id="patch_5">
    <path d="M 53.80875 376.797188 
L 680.20875 376.797188 
" style="fill:none;stroke:#f0f0f0;stroke-linecap:square;stroke-linejoin:miter;stroke-width:3;"/>
   </g>
   <g id="patch_6">
    <path d="M 53.80875 26.877187 
L 680.20875 26.877187 
" style="fill:none;stroke:#f0f0f0;stroke-linecap:square;stroke-linejoin:miter;stroke-width:3;"/>
   </g>
   <g id="text_15">
    <!-- GitHub: michael-rowland -->
    <defs>
     <path d="M 59.515625 10.40625 
L 59.515625 29.984375 
L 43.40625 29.984375 
L 43.40625 38.09375 
L 69.28125 38.09375 
L 69.28125 6.78125 
Q 63.578125 2.734375 56.6875 0.65625 
Q 49.8125 -1.421875 42 -1.421875 
Q 24.90625 -1.421875 15.25 8.5625 
Q 5.609375 18.5625 5.609375 36.375 
Q 5.609375 54.25 15.25 64.234375 
Q 24.90625 74.21875 42 74.21875 
Q 49.125 74.21875 55.546875 72.453125 
Q 61.96875 70.703125 67.390625 67.28125 
L 67.390625 56.78125 
Q 61.921875 61.421875 55.765625 63.765625 
Q 49.609375 66.109375 42.828125 66.109375 
Q 29.4375 66.109375 22.71875 58.640625 
Q 16.015625 51.171875 16.015625 36.375 
Q 16.015625 21.625 22.71875 14.15625 
Q 29.4375 6.6875 42.828125 6.6875 
Q 48.046875 6.6875 52.140625 7.59375 
Q 56.25 8.5 59.515625 10.40625 
z
" id="DejaVuSans-71"/>
     <path d="M 9.421875 54.6875 
L 18.40625 54.6875 
L 18.40625 0 
L 9.421875 0 
z
M 9.421875 75.984375 
L 18.40625 75.984375 
L 18.40625 64.59375 
L 9.421875 64.59375 
z
" id="DejaVuSans-105"/>
     <path d="M 18.3125 70.21875 
L 18.3125 54.6875 
L 36.8125 54.6875 
L 36.8125 47.703125 
L 18.3125 47.703125 
L 18.3125 18.015625 
Q 18.3125 11.328125 20.140625 9.421875 
Q 21.96875 7.515625 27.59375 7.515625 
L 36.8125 7.515625 
L 36.8125 0 
L 27.59375 0 
Q 17.1875 0 13.234375 3.875 
Q 9.28125 7.765625 9.28125 18.015625 
L 9.28125 47.703125 
L 2.6875 47.703125 
L 2.6875 54.6875 
L 9.28125 54.6875 
L 9.28125 70.21875 
z
" id="DejaVuSans-116"/>
     <path d="M 9.8125 72.90625 
L 19.671875 72.90625 
L 19.671875 43.015625 
L 55.515625 43.015625 
L 55.515625 72.90625 
L 65.375 72.90625 
L 65.375 0 
L 55.515625 0 
L 55.515625 34.71875 
L 19.671875 34.71875 
L 19.671875 0 
L 9.8125 0 
z
" id="DejaVuSans-72"/>
     <path d="M 8.5 21.578125 
L 8.5 54.6875 
L 17.484375 54.6875 
L 17.484375 21.921875 
Q 17.484375 14.15625 20.5 10.265625 
Q 23.53125 6.390625 29.59375 6.390625 
Q 36.859375 6.390625 41.078125 11.03125 
Q 45.3125 15.671875 45.3125 23.6875 
L 45.3125 54.6875 
L 54.296875 54.6875 
L 54.296875 0 
L 45.3125 0 
L 45.3125 8.40625 
Q 42.046875 3.421875 37.71875 1 
Q 33.40625 -1.421875 27.6875 -1.421875 
Q 18.265625 -1.421875 13.375 4.4375 
Q 8.5 10.296875 8.5 21.578125 
z
M 31.109375 56 
z
" id="DejaVuSans-117"/>
     <path d="M 48.6875 27.296875 
Q 48.6875 37.203125 44.609375 42.84375 
Q 40.53125 48.484375 33.40625 48.484375 
Q 26.265625 48.484375 22.1875 42.84375 
Q 18.109375 37.203125 18.109375 27.296875 
Q 18.109375 17.390625 22.1875 11.75 
Q 26.265625 6.109375 33.40625 6.109375 
Q 40.53125 6.109375 44.609375 11.75 
Q 48.6875 17.390625 48.6875 27.296875 
z
M 18.109375 46.390625 
Q 20.953125 51.265625 25.265625 53.625 
Q 29.59375 56 35.59375 56 
Q 45.5625 56 51.78125 48.09375 
Q 58.015625 40.1875 58.015625 27.296875 
Q 58.015625 14.40625 51.78125 6.484375 
Q 45.5625 -1.421875 35.59375 -1.421875 
Q 29.59375 -1.421875 25.265625 0.953125 
Q 20.953125 3.328125 18.109375 8.203125 
L 18.109375 0 
L 9.078125 0 
L 9.078125 75.984375 
L 18.109375 75.984375 
z
" id="DejaVuSans-98"/>
     <path d="M 11.71875 12.40625 
L 22.015625 12.40625 
L 22.015625 0 
L 11.71875 0 
z
M 11.71875 51.703125 
L 22.015625 51.703125 
L 22.015625 39.3125 
L 11.71875 39.3125 
z
" id="DejaVuSans-58"/>
     <path id="DejaVuSans-32"/>
     <path d="M 52 44.1875 
Q 55.375 50.25 60.0625 53.125 
Q 64.75 56 71.09375 56 
Q 79.640625 56 84.28125 50.015625 
Q 88.921875 44.046875 88.921875 33.015625 
L 88.921875 0 
L 79.890625 0 
L 79.890625 32.71875 
Q 79.890625 40.578125 77.09375 44.375 
Q 74.3125 48.1875 68.609375 48.1875 
Q 61.625 48.1875 57.5625 43.546875 
Q 53.515625 38.921875 53.515625 30.90625 
L 53.515625 0 
L 44.484375 0 
L 44.484375 32.71875 
Q 44.484375 40.625 41.703125 44.40625 
Q 38.921875 48.1875 33.109375 48.1875 
Q 26.21875 48.1875 22.15625 43.53125 
Q 18.109375 38.875 18.109375 30.90625 
L 18.109375 0 
L 9.078125 0 
L 9.078125 54.6875 
L 18.109375 54.6875 
L 18.109375 46.1875 
Q 21.1875 51.21875 25.484375 53.609375 
Q 29.78125 56 35.6875 56 
Q 41.65625 56 45.828125 52.96875 
Q 50 49.953125 52 44.1875 
z
" id="DejaVuSans-109"/>
     <path d="M 48.78125 52.59375 
L 48.78125 44.1875 
Q 44.96875 46.296875 41.140625 47.34375 
Q 37.3125 48.390625 33.40625 48.390625 
Q 24.65625 48.390625 19.8125 42.84375 
Q 14.984375 37.3125 14.984375 27.296875 
Q 14.984375 17.28125 19.8125 11.734375 
Q 24.65625 6.203125 33.40625 6.203125 
Q 37.3125 6.203125 41.140625 7.25 
Q 44.96875 8.296875 48.78125 10.40625 
L 48.78125 2.09375 
Q 45.015625 0.34375 40.984375 -0.53125 
Q 36.96875 -1.421875 32.421875 -1.421875 
Q 20.0625 -1.421875 12.78125 6.34375 
Q 5.515625 14.109375 5.515625 27.296875 
Q 5.515625 40.671875 12.859375 48.328125 
Q 20.21875 56 33.015625 56 
Q 37.15625 56 41.109375 55.140625 
Q 45.0625 54.296875 48.78125 52.59375 
z
" id="DejaVuSans-99"/>
     <path d="M 54.890625 33.015625 
L 54.890625 0 
L 45.90625 0 
L 45.90625 32.71875 
Q 45.90625 40.484375 42.875 44.328125 
Q 39.84375 48.1875 33.796875 48.1875 
Q 26.515625 48.1875 22.3125 43.546875 
Q 18.109375 38.921875 18.109375 30.90625 
L 18.109375 0 
L 9.078125 0 
L 9.078125 75.984375 
L 18.109375 75.984375 
L 18.109375 46.1875 
Q 21.34375 51.125 25.703125 53.5625 
Q 30.078125 56 35.796875 56 
Q 45.21875 56 50.046875 50.171875 
Q 54.890625 44.34375 54.890625 33.015625 
z
" id="DejaVuSans-104"/>
     <path d="M 34.28125 27.484375 
Q 23.390625 27.484375 19.1875 25 
Q 14.984375 22.515625 14.984375 16.5 
Q 14.984375 11.71875 18.140625 8.90625 
Q 21.296875 6.109375 26.703125 6.109375 
Q 34.1875 6.109375 38.703125 11.40625 
Q 43.21875 16.703125 43.21875 25.484375 
L 43.21875 27.484375 
z
M 52.203125 31.203125 
L 52.203125 0 
L 43.21875 0 
L 43.21875 8.296875 
Q 40.140625 3.328125 35.546875 0.953125 
Q 30.953125 -1.421875 24.3125 -1.421875 
Q 15.921875 -1.421875 10.953125 3.296875 
Q 6 8.015625 6 15.921875 
Q 6 25.140625 12.171875 29.828125 
Q 18.359375 34.515625 30.609375 34.515625 
L 43.21875 34.515625 
L 43.21875 35.40625 
Q 43.21875 41.609375 39.140625 45 
Q 35.0625 48.390625 27.6875 48.390625 
Q 23 48.390625 18.546875 47.265625 
Q 14.109375 46.140625 10.015625 43.890625 
L 10.015625 52.203125 
Q 14.9375 54.109375 19.578125 55.046875 
Q 24.21875 56 28.609375 56 
Q 40.484375 56 46.34375 49.84375 
Q 52.203125 43.703125 52.203125 31.203125 
z
" id="DejaVuSans-97"/>
     <path d="M 56.203125 29.59375 
L 56.203125 25.203125 
L 14.890625 25.203125 
Q 15.484375 15.921875 20.484375 11.0625 
Q 25.484375 6.203125 34.421875 6.203125 
Q 39.59375 6.203125 44.453125 7.46875 
Q 49.3125 8.734375 54.109375 11.28125 
L 54.109375 2.78125 
Q 49.265625 0.734375 44.1875 -0.34375 
Q 39.109375 -1.421875 33.890625 -1.421875 
Q 20.796875 -1.421875 13.15625 6.1875 
Q 5.515625 13.8125 5.515625 26.8125 
Q 5.515625 40.234375 12.765625 48.109375 
Q 20.015625 56 32.328125 56 
Q 43.359375 56 49.78125 48.890625 
Q 56.203125 41.796875 56.203125 29.59375 
z
M 47.21875 32.234375 
Q 47.125 39.59375 43.09375 43.984375 
Q 39.0625 48.390625 32.421875 48.390625 
Q 24.90625 48.390625 20.390625 44.140625 
Q 15.875 39.890625 15.1875 32.171875 
z
" id="DejaVuSans-101"/>
     <path d="M 9.421875 75.984375 
L 18.40625 75.984375 
L 18.40625 0 
L 9.421875 0 
z
" id="DejaVuSans-108"/>
     <path d="M 4.890625 31.390625 
L 31.203125 31.390625 
L 31.203125 23.390625 
L 4.890625 23.390625 
z
" id="DejaVuSans-45"/>
     <path d="M 41.109375 46.296875 
Q 39.59375 47.171875 37.8125 47.578125 
Q 36.03125 48 33.890625 48 
Q 26.265625 48 22.1875 43.046875 
Q 18.109375 38.09375 18.109375 28.8125 
L 18.109375 0 
L 9.078125 0 
L 9.078125 54.6875 
L 18.109375 54.6875 
L 18.109375 46.1875 
Q 20.953125 51.171875 25.484375 53.578125 
Q 30.03125 56 36.53125 56 
Q 37.453125 56 38.578125 55.875 
Q 39.703125 55.765625 41.0625 55.515625 
z
" id="DejaVuSans-114"/>
     <path d="M 30.609375 48.390625 
Q 23.390625 48.390625 19.1875 42.75 
Q 14.984375 37.109375 14.984375 27.296875 
Q 14.984375 17.484375 19.15625 11.84375 
Q 23.34375 6.203125 30.609375 6.203125 
Q 37.796875 6.203125 41.984375 11.859375 
Q 46.1875 17.53125 46.1875 27.296875 
Q 46.1875 37.015625 41.984375 42.703125 
Q 37.796875 48.390625 30.609375 48.390625 
z
M 30.609375 56 
Q 42.328125 56 49.015625 48.375 
Q 55.71875 40.765625 55.71875 27.296875 
Q 55.71875 13.875 49.015625 6.21875 
Q 42.328125 -1.421875 30.609375 -1.421875 
Q 18.84375 -1.421875 12.171875 6.21875 
Q 5.515625 13.875 5.515625 27.296875 
Q 5.515625 40.765625 12.171875 48.375 
Q 18.84375 56 30.609375 56 
z
" id="DejaVuSans-111"/>
     <path d="M 4.203125 54.6875 
L 13.1875 54.6875 
L 24.421875 12.015625 
L 35.59375 54.6875 
L 46.1875 54.6875 
L 57.421875 12.015625 
L 68.609375 54.6875 
L 77.59375 54.6875 
L 63.28125 0 
L 52.6875 0 
L 40.921875 44.828125 
L 29.109375 0 
L 18.5 0 
z
" id="DejaVuSans-119"/>
     <path d="M 54.890625 33.015625 
L 54.890625 0 
L 45.90625 0 
L 45.90625 32.71875 
Q 45.90625 40.484375 42.875 44.328125 
Q 39.84375 48.1875 33.796875 48.1875 
Q 26.515625 48.1875 22.3125 43.546875 
Q 18.109375 38.921875 18.109375 30.90625 
L 18.109375 0 
L 9.078125 0 
L 9.078125 54.6875 
L 18.109375 54.6875 
L 18.109375 46.1875 
Q 21.34375 51.125 25.703125 53.5625 
Q 30.078125 56 35.796875 56 
Q 45.21875 56 50.046875 50.171875 
Q 54.890625 44.34375 54.890625 33.015625 
z
" id="DejaVuSans-110"/>
     <path d="M 45.40625 46.390625 
L 45.40625 75.984375 
L 54.390625 75.984375 
L 54.390625 0 
L 45.40625 0 
L 45.40625 8.203125 
Q 42.578125 3.328125 38.25 0.953125 
Q 33.9375 -1.421875 27.875 -1.421875 
Q 17.96875 -1.421875 11.734375 6.484375 
Q 5.515625 14.40625 5.515625 27.296875 
Q 5.515625 40.1875 11.734375 48.09375 
Q 17.96875 56 27.875 56 
Q 33.9375 56 38.25 53.625 
Q 42.578125 51.265625 45.40625 46.390625 
z
M 14.796875 27.296875 
Q 14.796875 17.390625 18.875 11.75 
Q 22.953125 6.109375 30.078125 6.109375 
Q 37.203125 6.109375 41.296875 11.75 
Q 45.40625 17.390625 45.40625 27.296875 
Q 45.40625 37.203125 41.296875 42.84375 
Q 37.203125 48.484375 30.078125 48.484375 
Q 22.953125 48.484375 18.875 42.84375 
Q 14.796875 37.203125 14.796875 27.296875 
z
" id="DejaVuSans-100"/>
    </defs>
    <g style="fill:#808080;" transform="translate(553.090353 406.335889)scale(0.08 -0.08)">
     <use xlink:href="#DejaVuSans-71"/>
     <use x="77.490234" xlink:href="#DejaVuSans-105"/>
     <use x="105.273438" xlink:href="#DejaVuSans-116"/>
     <use x="144.482422" xlink:href="#DejaVuSans-72"/>
     <use x="219.677734" xlink:href="#DejaVuSans-117"/>
     <use x="283.056641" xlink:href="#DejaVuSans-98"/>
     <use x="346.533203" xlink:href="#DejaVuSans-58"/>
     <use x="380.224609" xlink:href="#DejaVuSans-32"/>
     <use x="412.011719" xlink:href="#DejaVuSans-109"/>
     <use x="509.423828" xlink:href="#DejaVuSans-105"/>
     <use x="537.207031" xlink:href="#DejaVuSans-99"/>
     <use x="592.1875" xlink:href="#DejaVuSans-104"/>
     <use x="655.566406" xlink:href="#DejaVuSans-97"/>
     <use x="716.845703" xlink:href="#DejaVuSans-101"/>
     <use x="778.369141" xlink:href="#DejaVuSans-108"/>
     <use x="806.152344" xlink:href="#DejaVuSans-45"/>
     <use x="842.236328" xlink:href="#DejaVuSans-114"/>
     <use x="881.099609" xlink:href="#DejaVuSans-111"/>
     <use x="942.28125" xlink:href="#DejaVuSans-119"/>
     <use x="1024.068359" xlink:href="#DejaVuSans-108"/>
     <use x="1051.851562" xlink:href="#DejaVuSans-97"/>
     <use x="1113.130859" xlink:href="#DejaVuSans-110"/>
     <use x="1176.509766" xlink:href="#DejaVuSans-100"/>
    </g>
   </g>
   <g id="text_16">
    <!-- Bet Against Bottom 3 ELO Underdogs (2015-2019) -->
    <defs>
     <path d="M 38.375 44.671875 
Q 42.828125 44.671875 45.109375 46.625 
Q 47.40625 48.578125 47.40625 52.390625 
Q 47.40625 56.15625 45.109375 58.125 
Q 42.828125 60.109375 38.375 60.109375 
L 27.984375 60.109375 
L 27.984375 44.671875 
z
M 39.015625 12.796875 
Q 44.671875 12.796875 47.53125 15.1875 
Q 50.390625 17.578125 50.390625 22.40625 
Q 50.390625 27.15625 47.5625 29.515625 
Q 44.734375 31.890625 39.015625 31.890625 
L 27.984375 31.890625 
L 27.984375 12.796875 
z
M 56.5 39.015625 
Q 62.546875 37.25 65.859375 32.515625 
Q 69.1875 27.78125 69.1875 20.90625 
Q 69.1875 10.359375 62.0625 5.171875 
Q 54.9375 0 40.375 0 
L 9.1875 0 
L 9.1875 72.90625 
L 37.40625 72.90625 
Q 52.59375 72.90625 59.40625 68.3125 
Q 66.21875 63.71875 66.21875 53.609375 
Q 66.21875 48.296875 63.71875 44.5625 
Q 61.234375 40.828125 56.5 39.015625 
z
" id="DejaVuSans-Bold-66"/>
     <path d="M 53.421875 13.28125 
L 24.03125 13.28125 
L 19.390625 0 
L 0.484375 0 
L 27.484375 72.90625 
L 49.90625 72.90625 
L 76.90625 0 
L 58.015625 0 
z
M 28.71875 26.8125 
L 48.6875 26.8125 
L 38.71875 55.8125 
z
" id="DejaVuSans-Bold-65"/>
     <path d="M 34.421875 43.5 
Q 28.609375 43.5 25.5625 39.328125 
Q 22.515625 35.15625 22.515625 27.296875 
Q 22.515625 19.4375 25.5625 15.25 
Q 28.609375 11.078125 34.421875 11.078125 
Q 40.140625 11.078125 43.15625 15.25 
Q 46.1875 19.4375 46.1875 27.296875 
Q 46.1875 35.15625 43.15625 39.328125 
Q 40.140625 43.5 34.421875 43.5 
z
M 34.421875 56 
Q 48.53125 56 56.46875 48.375 
Q 64.40625 40.765625 64.40625 27.296875 
Q 64.40625 13.8125 56.46875 6.1875 
Q 48.53125 -1.421875 34.421875 -1.421875 
Q 20.265625 -1.421875 12.28125 6.1875 
Q 4.296875 13.8125 4.296875 27.296875 
Q 4.296875 40.765625 12.28125 48.375 
Q 20.265625 56 34.421875 56 
z
" id="DejaVuSans-Bold-111"/>
     <path d="M 46.578125 39.3125 
Q 53.953125 37.40625 57.78125 32.6875 
Q 61.625 27.984375 61.625 20.703125 
Q 61.625 9.859375 53.3125 4.21875 
Q 45.015625 -1.421875 29.109375 -1.421875 
Q 23.484375 -1.421875 17.84375 -0.515625 
Q 12.203125 0.390625 6.6875 2.203125 
L 6.6875 16.703125 
Q 11.96875 14.0625 17.15625 12.71875 
Q 22.359375 11.375 27.390625 11.375 
Q 34.859375 11.375 38.84375 13.953125 
Q 42.828125 16.546875 42.828125 21.390625 
Q 42.828125 26.375 38.75 28.9375 
Q 34.671875 31.5 26.703125 31.5 
L 19.1875 31.5 
L 19.1875 43.609375 
L 27.09375 43.609375 
Q 34.1875 43.609375 37.640625 45.828125 
Q 41.109375 48.046875 41.109375 52.59375 
Q 41.109375 56.78125 37.734375 59.078125 
Q 34.375 61.375 28.21875 61.375 
Q 23.6875 61.375 19.046875 60.34375 
Q 14.40625 59.328125 9.8125 57.328125 
L 9.8125 71.09375 
Q 15.375 72.65625 20.84375 73.4375 
Q 26.3125 74.21875 31.59375 74.21875 
Q 45.796875 74.21875 52.84375 69.546875 
Q 59.90625 64.890625 59.90625 55.515625 
Q 59.90625 49.125 56.53125 45.046875 
Q 53.171875 40.96875 46.578125 39.3125 
z
" id="DejaVuSans-Bold-51"/>
     <path d="M 9.1875 72.90625 
L 27.984375 72.90625 
L 27.984375 14.203125 
L 60.984375 14.203125 
L 60.984375 0 
L 9.1875 0 
z
" id="DejaVuSans-Bold-76"/>
     <path d="M 42.484375 60.59375 
Q 33.890625 60.59375 29.15625 54.25 
Q 24.421875 47.90625 24.421875 36.375 
Q 24.421875 24.90625 29.15625 18.546875 
Q 33.890625 12.203125 42.484375 12.203125 
Q 51.125 12.203125 55.859375 18.546875 
Q 60.59375 24.90625 60.59375 36.375 
Q 60.59375 47.90625 55.859375 54.25 
Q 51.125 60.59375 42.484375 60.59375 
z
M 42.484375 74.21875 
Q 60.0625 74.21875 70.015625 64.15625 
Q 79.984375 54.109375 79.984375 36.375 
Q 79.984375 18.703125 70.015625 8.640625 
Q 60.0625 -1.421875 42.484375 -1.421875 
Q 24.953125 -1.421875 14.96875 8.640625 
Q 4.984375 18.703125 4.984375 36.375 
Q 4.984375 54.109375 14.96875 64.15625 
Q 24.953125 74.21875 42.484375 74.21875 
z
" id="DejaVuSans-Bold-79"/>
     <path d="M 9.1875 72.90625 
L 27.984375 72.90625 
L 27.984375 29.203125 
Q 27.984375 20.171875 30.9375 16.28125 
Q 33.890625 12.40625 40.578125 12.40625 
Q 47.3125 12.40625 50.265625 16.28125 
Q 53.21875 20.171875 53.21875 29.203125 
L 53.21875 72.90625 
L 72.015625 72.90625 
L 72.015625 29.203125 
Q 72.015625 13.71875 64.25 6.140625 
Q 56.5 -1.421875 40.578125 -1.421875 
Q 24.703125 -1.421875 16.9375 6.140625 
Q 9.1875 13.71875 9.1875 29.203125 
z
" id="DejaVuSans-Bold-85"/>
     <path d="M 45.609375 46.6875 
L 45.609375 75.984375 
L 63.1875 75.984375 
L 63.1875 0 
L 45.609375 0 
L 45.609375 7.90625 
Q 42 3.078125 37.640625 0.828125 
Q 33.296875 -1.421875 27.59375 -1.421875 
Q 17.484375 -1.421875 10.984375 6.609375 
Q 4.5 14.65625 4.5 27.296875 
Q 4.5 39.9375 10.984375 47.96875 
Q 17.484375 56 27.59375 56 
Q 33.25 56 37.625 53.734375 
Q 42 51.46875 45.609375 46.6875 
z
M 34.078125 11.28125 
Q 39.703125 11.28125 42.65625 15.375 
Q 45.609375 19.484375 45.609375 27.296875 
Q 45.609375 35.109375 42.65625 39.203125 
Q 39.703125 43.3125 34.078125 43.3125 
Q 28.515625 43.3125 25.5625 39.203125 
Q 22.609375 35.109375 22.609375 27.296875 
Q 22.609375 19.484375 25.5625 15.375 
Q 28.515625 11.28125 34.078125 11.28125 
z
" id="DejaVuSans-Bold-100"/>
     <path d="M 37.703125 -13.1875 
L 23.1875 -13.1875 
Q 15.71875 -1.125 12.15625 9.734375 
Q 8.59375 20.609375 8.59375 31.296875 
Q 8.59375 42 12.171875 52.953125 
Q 15.765625 63.921875 23.1875 75.875 
L 37.703125 75.875 
Q 31.453125 64.3125 28.328125 53.25 
Q 25.203125 42.1875 25.203125 31.390625 
Q 25.203125 20.609375 28.296875 9.515625 
Q 31.390625 -1.5625 37.703125 -13.1875 
z
" id="DejaVuSans-Bold-40"/>
     <path d="M 28.8125 13.8125 
L 60.890625 13.8125 
L 60.890625 0 
L 7.90625 0 
L 7.90625 13.8125 
L 34.515625 37.3125 
Q 38.09375 40.53125 39.796875 43.609375 
Q 41.5 46.6875 41.5 50 
Q 41.5 55.125 38.0625 58.25 
Q 34.625 61.375 28.90625 61.375 
Q 24.515625 61.375 19.28125 59.5 
Q 14.0625 57.625 8.109375 53.90625 
L 8.109375 69.921875 
Q 14.453125 72.015625 20.65625 73.109375 
Q 26.859375 74.21875 32.8125 74.21875 
Q 45.90625 74.21875 53.15625 68.453125 
Q 60.40625 62.703125 60.40625 52.390625 
Q 60.40625 46.4375 57.328125 41.28125 
Q 54.25 36.140625 44.390625 27.484375 
z
" id="DejaVuSans-Bold-50"/>
     <path d="M 46 36.53125 
Q 46 50.203125 43.4375 55.78125 
Q 40.875 61.375 34.8125 61.375 
Q 28.765625 61.375 26.171875 55.78125 
Q 23.578125 50.203125 23.578125 36.53125 
Q 23.578125 22.703125 26.171875 17.03125 
Q 28.765625 11.375 34.8125 11.375 
Q 40.828125 11.375 43.40625 17.03125 
Q 46 22.703125 46 36.53125 
z
M 64.796875 36.375 
Q 64.796875 18.265625 56.984375 8.421875 
Q 49.171875 -1.421875 34.8125 -1.421875 
Q 20.40625 -1.421875 12.59375 8.421875 
Q 4.78125 18.265625 4.78125 36.375 
Q 4.78125 54.546875 12.59375 64.375 
Q 20.40625 74.21875 34.8125 74.21875 
Q 49.171875 74.21875 56.984375 64.375 
Q 64.796875 54.546875 64.796875 36.375 
z
" id="DejaVuSans-Bold-48"/>
     <path d="M 11.71875 12.984375 
L 28.328125 12.984375 
L 28.328125 60.109375 
L 11.28125 56.59375 
L 11.28125 69.390625 
L 28.21875 72.90625 
L 46.09375 72.90625 
L 46.09375 12.984375 
L 62.703125 12.984375 
L 62.703125 0 
L 11.71875 0 
z
" id="DejaVuSans-Bold-49"/>
     <path d="M 10.59375 72.90625 
L 57.328125 72.90625 
L 57.328125 59.078125 
L 25.59375 59.078125 
L 25.59375 47.796875 
Q 27.734375 48.390625 29.90625 48.703125 
Q 32.078125 49.03125 34.421875 49.03125 
Q 47.75 49.03125 55.171875 42.359375 
Q 62.59375 35.6875 62.59375 23.78125 
Q 62.59375 11.96875 54.515625 5.265625 
Q 46.4375 -1.421875 32.078125 -1.421875 
Q 25.875 -1.421875 19.796875 -0.21875 
Q 13.71875 0.984375 7.71875 3.421875 
L 7.71875 18.21875 
Q 13.671875 14.796875 19.015625 13.078125 
Q 24.359375 11.375 29.109375 11.375 
Q 35.9375 11.375 39.859375 14.71875 
Q 43.796875 18.0625 43.796875 23.78125 
Q 43.796875 29.546875 39.859375 32.859375 
Q 35.9375 36.1875 29.109375 36.1875 
Q 25.046875 36.1875 20.453125 35.125 
Q 15.875 34.078125 10.59375 31.890625 
z
" id="DejaVuSans-Bold-53"/>
     <path d="M 5.421875 35.890625 
L 36.078125 35.890625 
L 36.078125 21.6875 
L 5.421875 21.6875 
z
" id="DejaVuSans-Bold-45"/>
     <path d="M 10.015625 1.609375 
L 10.015625 15.09375 
Q 14.5 12.984375 18.59375 11.9375 
Q 22.703125 10.890625 26.703125 10.890625 
Q 35.109375 10.890625 39.796875 15.546875 
Q 44.484375 20.21875 45.3125 29.390625 
Q 42 26.953125 38.234375 25.734375 
Q 34.46875 24.515625 30.078125 24.515625 
Q 18.890625 24.515625 12.03125 31.03125 
Q 5.171875 37.546875 5.171875 48.1875 
Q 5.171875 59.96875 12.8125 67.046875 
Q 20.453125 74.125 33.296875 74.125 
Q 47.5625 74.125 55.375 64.5 
Q 63.1875 54.890625 63.1875 37.3125 
Q 63.1875 19.234375 54.046875 8.90625 
Q 44.921875 -1.421875 29 -1.421875 
Q 23.875 -1.421875 19.1875 -0.65625 
Q 14.5 0.09375 10.015625 1.609375 
z
M 33.203125 36.71875 
Q 38.140625 36.71875 40.625 39.90625 
Q 43.109375 43.109375 43.109375 49.515625 
Q 43.109375 55.859375 40.625 59.078125 
Q 38.140625 62.3125 33.203125 62.3125 
Q 28.265625 62.3125 25.78125 59.078125 
Q 23.296875 55.859375 23.296875 49.515625 
Q 23.296875 43.109375 25.78125 39.90625 
Q 28.265625 36.71875 33.203125 36.71875 
z
" id="DejaVuSans-Bold-57"/>
     <path d="M 8.015625 -13.1875 
Q 14.265625 -1.5625 17.390625 9.515625 
Q 20.515625 20.609375 20.515625 31.390625 
Q 20.515625 42.1875 17.390625 53.25 
Q 14.265625 64.3125 8.015625 75.875 
L 22.515625 75.875 
Q 29.9375 63.921875 33.515625 52.953125 
Q 37.109375 42 37.109375 31.296875 
Q 37.109375 20.609375 33.546875 9.734375 
Q 29.984375 -1.125 22.515625 -13.1875 
z
" id="DejaVuSans-Bold-41"/>
    </defs>
    <g transform="translate(112.453594 20.877187)scale(0.18 -0.18)">
     <use xlink:href="#DejaVuSans-Bold-66"/>
     <use x="76.220703" xlink:href="#DejaVuSans-Bold-101"/>
     <use x="144.042969" xlink:href="#DejaVuSans-Bold-116"/>
     <use x="191.845703" xlink:href="#DejaVuSans-Bold-32"/>
     <use x="226.660156" xlink:href="#DejaVuSans-Bold-65"/>
     <use x="304.052734" xlink:href="#DejaVuSans-Bold-103"/>
     <use x="375.634766" xlink:href="#DejaVuSans-Bold-97"/>
     <use x="443.115234" xlink:href="#DejaVuSans-Bold-105"/>
     <use x="477.392578" xlink:href="#DejaVuSans-Bold-110"/>
     <use x="548.583984" xlink:href="#DejaVuSans-Bold-115"/>
     <use x="608.105469" xlink:href="#DejaVuSans-Bold-116"/>
     <use x="655.908203" xlink:href="#DejaVuSans-Bold-32"/>
     <use x="690.722656" xlink:href="#DejaVuSans-Bold-66"/>
     <use x="766.943359" xlink:href="#DejaVuSans-Bold-111"/>
     <use x="835.644531" xlink:href="#DejaVuSans-Bold-116"/>
     <use x="883.447266" xlink:href="#DejaVuSans-Bold-116"/>
     <use x="931.25" xlink:href="#DejaVuSans-Bold-111"/>
     <use x="999.951172" xlink:href="#DejaVuSans-Bold-109"/>
     <use x="1104.150391" xlink:href="#DejaVuSans-Bold-32"/>
     <use x="1138.964844" xlink:href="#DejaVuSans-Bold-51"/>
     <use x="1208.544922" xlink:href="#DejaVuSans-Bold-32"/>
     <use x="1243.359375" xlink:href="#DejaVuSans-Bold-69"/>
     <use x="1311.669922" xlink:href="#DejaVuSans-Bold-76"/>
     <use x="1371.765625" xlink:href="#DejaVuSans-Bold-79"/>
     <use x="1456.775391" xlink:href="#DejaVuSans-Bold-32"/>
     <use x="1491.589844" xlink:href="#DejaVuSans-Bold-85"/>
     <use x="1572.791016" xlink:href="#DejaVuSans-Bold-110"/>
     <use x="1643.982422" xlink:href="#DejaVuSans-Bold-100"/>
     <use x="1715.564453" xlink:href="#DejaVuSans-Bold-101"/>
     <use x="1783.386719" xlink:href="#DejaVuSans-Bold-114"/>
     <use x="1832.703125" xlink:href="#DejaVuSans-Bold-100"/>
     <use x="1904.285156" xlink:href="#DejaVuSans-Bold-111"/>
     <use x="1972.986328" xlink:href="#DejaVuSans-Bold-103"/>
     <use x="2044.568359" xlink:href="#DejaVuSans-Bold-115"/>
     <use x="2104.089844" xlink:href="#DejaVuSans-Bold-32"/>
     <use x="2138.904297" xlink:href="#DejaVuSans-Bold-40"/>
     <use x="2184.607422" xlink:href="#DejaVuSans-Bold-50"/>
     <use x="2254.1875" xlink:href="#DejaVuSans-Bold-48"/>
     <use x="2323.767578" xlink:href="#DejaVuSans-Bold-49"/>
     <use x="2393.347656" xlink:href="#DejaVuSans-Bold-53"/>
     <use x="2462.927734" xlink:href="#DejaVuSans-Bold-45"/>
     <use x="2504.431641" xlink:href="#DejaVuSans-Bold-50"/>
     <use x="2574.011719" xlink:href="#DejaVuSans-Bold-48"/>
     <use x="2643.591797" xlink:href="#DejaVuSans-Bold-49"/>
     <use x="2713.171875" xlink:href="#DejaVuSans-Bold-57"/>
     <use x="2782.751953" xlink:href="#DejaVuSans-Bold-41"/>
    </g>
   </g>
  </g>
 </g>
 <defs>
  <clipPath id="pd41098584f">
   <rect height="349.92" width="626.4" x="53.80875" y="26.877187"/>
  </clipPath>
 </defs>
</svg>
