<?xml version="1.0" encoding="utf-8" standalone="no"?>
<!DOCTYPE svg PUBLIC "-//W3C//DTD SVG 1.1//EN"
  "http://www.w3.org/Graphics/SVG/1.1/DTD/svg11.dtd">
<!-- Created with matplotlib (https://matplotlib.org/) -->
<svg height="415.199639pt" version="1.1" viewBox="0 0 687.40875 415.199639" width="687.40875pt" xmlns="http://www.w3.org/2000/svg" xmlns:xlink="http://www.w3.org/1999/xlink">
 <defs>
  <style type="text/css">
*{stroke-linecap:butt;stroke-linejoin:round;}
  </style>
 </defs>
 <g id="figure_1">
  <g id="patch_1">
   <path d="M 0 415.199639 
L 687.40875 415.199639 
L 687.40875 0 
L 0 0 
z
" style="fill:#f0f0f0;"/>
  </g>
  <g id="axes_1">
   <g id="patch_2">
    <path d="M 53.80875 376.797188 
L 680.20875 376.797188 
L 680.20875 26.877187 
L 53.80875 26.877187 
z
" style="fill:#f0f0f0;"/>
   </g>
   <g id="matplotlib.axis_1">
    <g id="xtick_1">
     <g id="line2d_1">
      <path clip-path="url(#p01e986d62c)" d="M 82.281477 376.797188 
L 82.281477 26.877187 
" style="fill:none;stroke:#cbcbcb;"/>
     </g>
     <g id="line2d_2"/>
     <g id="text_1">
      <!-- 2015 -->
      <defs>
       <path d="M 19.1875 8.296875 
L 53.609375 8.296875 
L 53.609375 0 
L 7.328125 0 
L 7.328125 8.296875 
Q 12.9375 14.109375 22.625 23.890625 
Q 32.328125 33.6875 34.8125 36.53125 
Q 39.546875 41.84375 41.421875 45.53125 
Q 43.3125 49.21875 43.3125 52.78125 
Q 43.3125 58.59375 39.234375 62.25 
Q 35.15625 65.921875 28.609375 65.921875 
Q 23.96875 65.921875 18.8125 64.3125 
Q 13.671875 62.703125 7.8125 59.421875 
L 7.8125 69.390625 
Q 13.765625 71.78125 18.9375 73 
Q 24.125 74.21875 28.421875 74.21875 
Q 39.75 74.21875 46.484375 68.546875 
Q 53.21875 62.890625 53.21875 53.421875 
Q 53.21875 48.921875 51.53125 44.890625 
Q 49.859375 40.875 45.40625 35.40625 
Q 44.1875 33.984375 37.640625 27.21875 
Q 31.109375 20.453125 19.1875 8.296875 
z
" id="DejaVuSans-50"/>
       <path d="M 31.78125 66.40625 
Q 24.171875 66.40625 20.328125 58.90625 
Q 16.5 51.421875 16.5 36.375 
Q 16.5 21.390625 20.328125 13.890625 
Q 24.171875 6.390625 31.78125 6.390625 
Q 39.453125 6.390625 43.28125 13.890625 
Q 47.125 21.390625 47.125 36.375 
Q 47.125 51.421875 43.28125 58.90625 
Q 39.453125 66.40625 31.78125 66.40625 
z
M 31.78125 74.21875 
Q 44.046875 74.21875 50.515625 64.515625 
Q 56.984375 54.828125 56.984375 36.375 
Q 56.984375 17.96875 50.515625 8.265625 
Q 44.046875 -1.421875 31.78125 -1.421875 
Q 19.53125 -1.421875 13.0625 8.265625 
Q 6.59375 17.96875 6.59375 36.375 
Q 6.59375 54.828125 13.0625 64.515625 
Q 19.53125 74.21875 31.78125 74.21875 
z
" id="DejaVuSans-48"/>
       <path d="M 12.40625 8.296875 
L 28.515625 8.296875 
L 28.515625 63.921875 
L 10.984375 60.40625 
L 10.984375 69.390625 
L 28.421875 72.90625 
L 38.28125 72.90625 
L 38.28125 8.296875 
L 54.390625 8.296875 
L 54.390625 0 
L 12.40625 0 
z
" id="DejaVuSans-49"/>
       <path d="M 10.796875 72.90625 
L 49.515625 72.90625 
L 49.515625 64.59375 
L 19.828125 64.59375 
L 19.828125 46.734375 
Q 21.96875 47.46875 24.109375 47.828125 
Q 26.265625 48.1875 28.421875 48.1875 
Q 40.625 48.1875 47.75 41.5 
Q 54.890625 34.8125 54.890625 23.390625 
Q 54.890625 11.625 47.5625 5.09375 
Q 40.234375 -1.421875 26.90625 -1.421875 
Q 22.3125 -1.421875 17.546875 -0.640625 
Q 12.796875 0.140625 7.71875 1.703125 
L 7.71875 11.625 
Q 12.109375 9.234375 16.796875 8.0625 
Q 21.484375 6.890625 26.703125 6.890625 
Q 35.15625 6.890625 40.078125 11.328125 
Q 45.015625 15.765625 45.015625 23.390625 
Q 45.015625 31 40.078125 35.4375 
Q 35.15625 39.890625 26.703125 39.890625 
Q 22.75 39.890625 18.8125 39.015625 
Q 14.890625 38.140625 10.796875 36.28125 
z
" id="DejaVuSans-53"/>
      </defs>
      <g transform="translate(69.556477 387.895625)scale(0.1 -0.1)">
       <use xlink:href="#DejaVuSans-50"/>
       <use x="63.623047" xlink:href="#DejaVuSans-48"/>
       <use x="127.246094" xlink:href="#DejaVuSans-49"/>
       <use x="190.869141" xlink:href="#DejaVuSans-53"/>
      </g>
     </g>
    </g>
    <g id="xtick_2">
     <g id="line2d_3">
      <path clip-path="url(#p01e986d62c)" d="M 201.10467 376.797188 
L 201.10467 26.877187 
" style="fill:none;stroke:#cbcbcb;"/>
     </g>
     <g id="line2d_4"/>
     <g id="text_2">
      <!-- 2016 -->
      <defs>
       <path d="M 33.015625 40.375 
Q 26.375 40.375 22.484375 35.828125 
Q 18.609375 31.296875 18.609375 23.390625 
Q 18.609375 15.53125 22.484375 10.953125 
Q 26.375 6.390625 33.015625 6.390625 
Q 39.65625 6.390625 43.53125 10.953125 
Q 47.40625 15.53125 47.40625 23.390625 
Q 47.40625 31.296875 43.53125 35.828125 
Q 39.65625 40.375 33.015625 40.375 
z
M 52.59375 71.296875 
L 52.59375 62.3125 
Q 48.875 64.0625 45.09375 64.984375 
Q 41.3125 65.921875 37.59375 65.921875 
Q 27.828125 65.921875 22.671875 59.328125 
Q 17.53125 52.734375 16.796875 39.40625 
Q 19.671875 43.65625 24.015625 45.921875 
Q 28.375 48.1875 33.59375 48.1875 
Q 44.578125 48.1875 50.953125 41.515625 
Q 57.328125 34.859375 57.328125 23.390625 
Q 57.328125 12.15625 50.6875 5.359375 
Q 44.046875 -1.421875 33.015625 -1.421875 
Q 20.359375 -1.421875 13.671875 8.265625 
Q 6.984375 17.96875 6.984375 36.375 
Q 6.984375 53.65625 15.1875 63.9375 
Q 23.390625 74.21875 37.203125 74.21875 
Q 40.921875 74.21875 44.703125 73.484375 
Q 48.484375 72.75 52.59375 71.296875 
z
" id="DejaVuSans-54"/>
      </defs>
      <g transform="translate(188.37967 387.895625)scale(0.1 -0.1)">
       <use xlink:href="#DejaVuSans-50"/>
       <use x="63.623047" xlink:href="#DejaVuSans-48"/>
       <use x="127.246094" xlink:href="#DejaVuSans-49"/>
       <use x="190.869141" xlink:href="#DejaVuSans-54"/>
      </g>
     </g>
    </g>
    <g id="xtick_3">
     <g id="line2d_5">
      <path clip-path="url(#p01e986d62c)" d="M 319.927862 376.797188 
L 319.927862 26.877187 
" style="fill:none;stroke:#cbcbcb;"/>
     </g>
     <g id="line2d_6"/>
     <g id="text_3">
      <!-- 2017 -->
      <defs>
       <path d="M 8.203125 72.90625 
L 55.078125 72.90625 
L 55.078125 68.703125 
L 28.609375 0 
L 18.3125 0 
L 43.21875 64.59375 
L 8.203125 64.59375 
z
" id="DejaVuSans-55"/>
      </defs>
      <g transform="translate(307.202862 387.895625)scale(0.1 -0.1)">
       <use xlink:href="#DejaVuSans-50"/>
       <use x="63.623047" xlink:href="#DejaVuSans-48"/>
       <use x="127.246094" xlink:href="#DejaVuSans-49"/>
       <use x="190.869141" xlink:href="#DejaVuSans-55"/>
      </g>
     </g>
    </g>
    <g id="xtick_4">
     <g id="line2d_7">
      <path clip-path="url(#p01e986d62c)" d="M 438.751055 376.797188 
L 438.751055 26.877187 
" style="fill:none;stroke:#cbcbcb;"/>
     </g>
     <g id="line2d_8"/>
     <g id="text_4">
      <!-- 2018 -->
      <defs>
       <path d="M 31.78125 34.625 
Q 24.75 34.625 20.71875 30.859375 
Q 16.703125 27.09375 16.703125 20.515625 
Q 16.703125 13.921875 20.71875 10.15625 
Q 24.75 6.390625 31.78125 6.390625 
Q 38.8125 6.390625 42.859375 10.171875 
Q 46.921875 13.96875 46.921875 20.515625 
Q 46.921875 27.09375 42.890625 30.859375 
Q 38.875 34.625 31.78125 34.625 
z
M 21.921875 38.8125 
Q 15.578125 40.375 12.03125 44.71875 
Q 8.5 49.078125 8.5 55.328125 
Q 8.5 64.0625 14.71875 69.140625 
Q 20.953125 74.21875 31.78125 74.21875 
Q 42.671875 74.21875 48.875 69.140625 
Q 55.078125 64.0625 55.078125 55.328125 
Q 55.078125 49.078125 51.53125 44.71875 
Q 48 40.375 41.703125 38.8125 
Q 48.828125 37.15625 52.796875 32.3125 
Q 56.78125 27.484375 56.78125 20.515625 
Q 56.78125 9.90625 50.3125 4.234375 
Q 43.84375 -1.421875 31.78125 -1.421875 
Q 19.734375 -1.421875 13.25 4.234375 
Q 6.78125 9.90625 6.78125 20.515625 
Q 6.78125 27.484375 10.78125 32.3125 
Q 14.796875 37.15625 21.921875 38.8125 
z
M 18.3125 54.390625 
Q 18.3125 48.734375 21.84375 45.5625 
Q 25.390625 42.390625 31.78125 42.390625 
Q 38.140625 42.390625 41.71875 45.5625 
Q 45.3125 48.734375 45.3125 54.390625 
Q 45.3125 60.0625 41.71875 63.234375 
Q 38.140625 66.40625 31.78125 66.40625 
Q 25.390625 66.40625 21.84375 63.234375 
Q 18.3125 60.0625 18.3125 54.390625 
z
" id="DejaVuSans-56"/>
      </defs>
      <g transform="translate(426.026055 387.895625)scale(0.1 -0.1)">
       <use xlink:href="#DejaVuSans-50"/>
       <use x="63.623047" xlink:href="#DejaVuSans-48"/>
       <use x="127.246094" xlink:href="#DejaVuSans-49"/>
       <use x="190.869141" xlink:href="#DejaVuSans-56"/>
      </g>
     </g>
    </g>
    <g id="xtick_5">
     <g id="line2d_9">
      <path clip-path="url(#p01e986d62c)" d="M 557.574247 376.797188 
L 557.574247 26.877187 
" style="fill:none;stroke:#cbcbcb;"/>
     </g>
     <g id="line2d_10"/>
     <g id="text_5">
      <!-- 2019 -->
      <defs>
       <path d="M 10.984375 1.515625 
L 10.984375 10.5 
Q 14.703125 8.734375 18.5 7.8125 
Q 22.3125 6.890625 25.984375 6.890625 
Q 35.75 6.890625 40.890625 13.453125 
Q 46.046875 20.015625 46.78125 33.40625 
Q 43.953125 29.203125 39.59375 26.953125 
Q 35.25 24.703125 29.984375 24.703125 
Q 19.046875 24.703125 12.671875 31.3125 
Q 6.296875 37.9375 6.296875 49.421875 
Q 6.296875 60.640625 12.9375 67.421875 
Q 19.578125 74.21875 30.609375 74.21875 
Q 43.265625 74.21875 49.921875 64.515625 
Q 56.59375 54.828125 56.59375 36.375 
Q 56.59375 19.140625 48.40625 8.859375 
Q 40.234375 -1.421875 26.421875 -1.421875 
Q 22.703125 -1.421875 18.890625 -0.6875 
Q 15.09375 0.046875 10.984375 1.515625 
z
M 30.609375 32.421875 
Q 37.25 32.421875 41.125 36.953125 
Q 45.015625 41.5 45.015625 49.421875 
Q 45.015625 57.28125 41.125 61.84375 
Q 37.25 66.40625 30.609375 66.40625 
Q 23.96875 66.40625 20.09375 61.84375 
Q 16.21875 57.28125 16.21875 49.421875 
Q 16.21875 41.5 20.09375 36.953125 
Q 23.96875 32.421875 30.609375 32.421875 
z
" id="DejaVuSans-57"/>
      </defs>
      <g transform="translate(544.849247 387.895625)scale(0.1 -0.1)">
       <use xlink:href="#DejaVuSans-50"/>
       <use x="63.623047" xlink:href="#DejaVuSans-48"/>
       <use x="127.246094" xlink:href="#DejaVuSans-49"/>
       <use x="190.869141" xlink:href="#DejaVuSans-57"/>
      </g>
     </g>
    </g>
    <g id="text_6">
     <!-- Year -->
     <defs>
      <path d="M -0.984375 72.90625 
L 19.578125 72.90625 
L 36.1875 46.921875 
L 52.78125 72.90625 
L 73.390625 72.90625 
L 45.609375 30.71875 
L 45.609375 0 
L 26.8125 0 
L 26.8125 30.71875 
z
" id="DejaVuSans-Bold-89"/>
      <path d="M 62.984375 27.484375 
L 62.984375 22.515625 
L 22.125 22.515625 
Q 22.75 16.359375 26.5625 13.28125 
Q 30.375 10.203125 37.203125 10.203125 
Q 42.71875 10.203125 48.5 11.84375 
Q 54.296875 13.484375 60.40625 16.796875 
L 60.40625 3.328125 
Q 54.203125 0.984375 48 -0.21875 
Q 41.796875 -1.421875 35.59375 -1.421875 
Q 20.75 -1.421875 12.515625 6.125 
Q 4.296875 13.671875 4.296875 27.296875 
Q 4.296875 40.671875 12.375 48.328125 
Q 20.453125 56 34.625 56 
Q 47.515625 56 55.25 48.234375 
Q 62.984375 40.484375 62.984375 27.484375 
z
M 45.015625 33.296875 
Q 45.015625 38.28125 42.109375 41.328125 
Q 39.203125 44.390625 34.515625 44.390625 
Q 29.4375 44.390625 26.265625 41.53125 
Q 23.09375 38.671875 22.3125 33.296875 
z
" id="DejaVuSans-Bold-101"/>
      <path d="M 32.90625 24.609375 
Q 27.4375 24.609375 24.671875 22.75 
Q 21.921875 20.90625 21.921875 17.28125 
Q 21.921875 13.96875 24.140625 12.078125 
Q 26.375 10.203125 30.328125 10.203125 
Q 35.25 10.203125 38.625 13.734375 
Q 42 17.28125 42 22.609375 
L 42 24.609375 
z
M 59.625 31.203125 
L 59.625 0 
L 42 0 
L 42 8.109375 
Q 38.484375 3.125 34.078125 0.84375 
Q 29.6875 -1.421875 23.390625 -1.421875 
Q 14.890625 -1.421875 9.59375 3.53125 
Q 4.296875 8.5 4.296875 16.40625 
Q 4.296875 26.03125 10.90625 30.515625 
Q 17.53125 35.015625 31.6875 35.015625 
L 42 35.015625 
L 42 36.375 
Q 42 40.53125 38.71875 42.453125 
Q 35.453125 44.390625 28.515625 44.390625 
Q 22.90625 44.390625 18.0625 43.265625 
Q 13.234375 42.140625 9.078125 39.890625 
L 9.078125 53.21875 
Q 14.703125 54.59375 20.359375 55.296875 
Q 26.03125 56 31.6875 56 
Q 46.484375 56 53.046875 50.171875 
Q 59.625 44.34375 59.625 31.203125 
z
" id="DejaVuSans-Bold-97"/>
      <path d="M 49.03125 39.796875 
Q 46.734375 40.875 44.453125 41.375 
Q 42.1875 41.890625 39.890625 41.890625 
Q 33.15625 41.890625 29.515625 37.5625 
Q 25.875 33.25 25.875 25.203125 
L 25.875 0 
L 8.40625 0 
L 8.40625 54.6875 
L 25.875 54.6875 
L 25.875 45.703125 
Q 29.25 51.078125 33.609375 53.53125 
Q 37.984375 56 44.09375 56 
Q 44.96875 56 45.984375 55.921875 
Q 47.015625 55.859375 48.96875 55.609375 
z
" id="DejaVuSans-Bold-114"/>
     </defs>
     <g transform="translate(349.655313 404.613125)scale(0.14 -0.14)">
      <use xlink:href="#DejaVuSans-Bold-89"/>
      <use x="63.287109" xlink:href="#DejaVuSans-Bold-101"/>
      <use x="131.109375" xlink:href="#DejaVuSans-Bold-97"/>
      <use x="198.589844" xlink:href="#DejaVuSans-Bold-114"/>
     </g>
    </g>
   </g>
   <g id="matplotlib.axis_2">
    <g id="ytick_1">
     <g id="line2d_11">
      <path clip-path="url(#p01e986d62c)" d="M 53.80875 353.675862 
L 680.20875 353.675862 
" style="fill:none;stroke:#cbcbcb;"/>
     </g>
     <g id="line2d_12"/>
     <g id="text_7">
      <!-- 0 -->
      <g transform="translate(43.94625 357.475081)scale(0.1 -0.1)">
       <use xlink:href="#DejaVuSans-48"/>
      </g>
     </g>
    </g>
    <g id="ytick_2">
     <g id="line2d_13">
      <path clip-path="url(#p01e986d62c)" d="M 53.80875 290.055062 
L 680.20875 290.055062 
" style="fill:none;stroke:#cbcbcb;"/>
     </g>
     <g id="line2d_14"/>
     <g id="text_8">
      <!-- 500 -->
      <g transform="translate(31.22125 293.85428)scale(0.1 -0.1)">
       <use xlink:href="#DejaVuSans-53"/>
       <use x="63.623047" xlink:href="#DejaVuSans-48"/>
       <use x="127.246094" xlink:href="#DejaVuSans-48"/>
      </g>
     </g>
    </g>
    <g id="ytick_3">
     <g id="line2d_15">
      <path clip-path="url(#p01e986d62c)" d="M 53.80875 226.434261 
L 680.20875 226.434261 
" style="fill:none;stroke:#cbcbcb;"/>
     </g>
     <g id="line2d_16"/>
     <g id="text_9">
      <!-- 1000 -->
      <g transform="translate(24.85875 230.23348)scale(0.1 -0.1)">
       <use xlink:href="#DejaVuSans-49"/>
       <use x="63.623047" xlink:href="#DejaVuSans-48"/>
       <use x="127.246094" xlink:href="#DejaVuSans-48"/>
       <use x="190.869141" xlink:href="#DejaVuSans-48"/>
      </g>
     </g>
    </g>
    <g id="ytick_4">
     <g id="line2d_17">
      <path clip-path="url(#p01e986d62c)" d="M 53.80875 162.813461 
L 680.20875 162.813461 
" style="fill:none;stroke:#cbcbcb;"/>
     </g>
     <g id="line2d_18"/>
     <g id="text_10">
      <!-- 1500 -->
      <g transform="translate(24.85875 166.61268)scale(0.1 -0.1)">
       <use xlink:href="#DejaVuSans-49"/>
       <use x="63.623047" xlink:href="#DejaVuSans-53"/>
       <use x="127.246094" xlink:href="#DejaVuSans-48"/>
       <use x="190.869141" xlink:href="#DejaVuSans-48"/>
      </g>
     </g>
    </g>
    <g id="ytick_5">
     <g id="line2d_19">
      <path clip-path="url(#p01e986d62c)" d="M 53.80875 99.192661 
L 680.20875 99.192661 
" style="fill:none;stroke:#cbcbcb;"/>
     </g>
     <g id="line2d_20"/>
     <g id="text_11">
      <!-- 2000 -->
      <g transform="translate(24.85875 102.99188)scale(0.1 -0.1)">
       <use xlink:href="#DejaVuSans-50"/>
       <use x="63.623047" xlink:href="#DejaVuSans-48"/>
       <use x="127.246094" xlink:href="#DejaVuSans-48"/>
       <use x="190.869141" xlink:href="#DejaVuSans-48"/>
      </g>
     </g>
    </g>
    <g id="ytick_6">
     <g id="line2d_21">
      <path clip-path="url(#p01e986d62c)" d="M 53.80875 35.571861 
L 680.20875 35.571861 
" style="fill:none;stroke:#cbcbcb;"/>
     </g>
     <g id="line2d_22"/>
     <g id="text_12">
      <!-- 2500 -->
      <g transform="translate(24.85875 39.371079)scale(0.1 -0.1)">
       <use xlink:href="#DejaVuSans-50"/>
       <use x="63.623047" xlink:href="#DejaVuSans-53"/>
       <use x="127.246094" xlink:href="#DejaVuSans-48"/>
       <use x="190.869141" xlink:href="#DejaVuSans-48"/>
      </g>
     </g>
    </g>
    <g id="text_13">
     <!-- Cumulative Earnings -->
     <defs>
      <path d="M 67 4 
Q 61.8125 1.3125 56.203125 -0.046875 
Q 50.59375 -1.421875 44.484375 -1.421875 
Q 26.265625 -1.421875 15.625 8.765625 
Q 4.984375 18.953125 4.984375 36.375 
Q 4.984375 53.859375 15.625 64.03125 
Q 26.265625 74.21875 44.484375 74.21875 
Q 50.59375 74.21875 56.203125 72.84375 
Q 61.8125 71.484375 67 68.796875 
L 67 53.71875 
Q 61.765625 57.28125 56.6875 58.9375 
Q 51.609375 60.59375 46 60.59375 
Q 35.9375 60.59375 30.171875 54.140625 
Q 24.421875 47.703125 24.421875 36.375 
Q 24.421875 25.09375 30.171875 18.640625 
Q 35.9375 12.203125 46 12.203125 
Q 51.609375 12.203125 56.6875 13.859375 
Q 61.765625 15.53125 67 19.09375 
z
" id="DejaVuSans-Bold-67"/>
      <path d="M 7.8125 21.296875 
L 7.8125 54.6875 
L 25.390625 54.6875 
L 25.390625 49.21875 
Q 25.390625 44.78125 25.34375 38.0625 
Q 25.296875 31.34375 25.296875 29.109375 
Q 25.296875 22.515625 25.640625 19.609375 
Q 25.984375 16.703125 26.8125 15.375 
Q 27.875 13.671875 29.609375 12.734375 
Q 31.34375 11.8125 33.59375 11.8125 
Q 39.0625 11.8125 42.1875 16.015625 
Q 45.3125 20.21875 45.3125 27.6875 
L 45.3125 54.6875 
L 62.796875 54.6875 
L 62.796875 0 
L 45.3125 0 
L 45.3125 7.90625 
Q 41.359375 3.125 36.9375 0.84375 
Q 32.515625 -1.421875 27.203125 -1.421875 
Q 17.71875 -1.421875 12.765625 4.390625 
Q 7.8125 10.203125 7.8125 21.296875 
z
" id="DejaVuSans-Bold-117"/>
      <path d="M 59.078125 45.609375 
Q 62.40625 50.6875 66.96875 53.34375 
Q 71.53125 56 77 56 
Q 86.421875 56 91.359375 50.1875 
Q 96.296875 44.390625 96.296875 33.296875 
L 96.296875 0 
L 78.71875 0 
L 78.71875 28.515625 
Q 78.765625 29.15625 78.78125 29.828125 
Q 78.8125 30.515625 78.8125 31.78125 
Q 78.8125 37.59375 77.09375 40.203125 
Q 75.390625 42.828125 71.578125 42.828125 
Q 66.609375 42.828125 63.890625 38.71875 
Q 61.1875 34.625 61.078125 26.859375 
L 61.078125 0 
L 43.5 0 
L 43.5 28.515625 
Q 43.5 37.59375 41.9375 40.203125 
Q 40.375 42.828125 36.375 42.828125 
Q 31.34375 42.828125 28.609375 38.703125 
Q 25.875 34.578125 25.875 26.90625 
L 25.875 0 
L 8.296875 0 
L 8.296875 54.6875 
L 25.875 54.6875 
L 25.875 46.6875 
Q 29.109375 51.3125 33.28125 53.65625 
Q 37.453125 56 42.484375 56 
Q 48.140625 56 52.484375 53.265625 
Q 56.84375 50.53125 59.078125 45.609375 
z
" id="DejaVuSans-Bold-109"/>
      <path d="M 8.40625 75.984375 
L 25.875 75.984375 
L 25.875 0 
L 8.40625 0 
z
" id="DejaVuSans-Bold-108"/>
      <path d="M 27.484375 70.21875 
L 27.484375 54.6875 
L 45.515625 54.6875 
L 45.515625 42.1875 
L 27.484375 42.1875 
L 27.484375 19 
Q 27.484375 15.1875 29 13.84375 
Q 30.515625 12.5 35.015625 12.5 
L 44 12.5 
L 44 0 
L 29 0 
Q 18.65625 0 14.328125 4.3125 
Q 10.015625 8.640625 10.015625 19 
L 10.015625 42.1875 
L 1.3125 42.1875 
L 1.3125 54.6875 
L 10.015625 54.6875 
L 10.015625 70.21875 
z
" id="DejaVuSans-Bold-116"/>
      <path d="M 8.40625 54.6875 
L 25.875 54.6875 
L 25.875 0 
L 8.40625 0 
z
M 8.40625 75.984375 
L 25.875 75.984375 
L 25.875 61.71875 
L 8.40625 61.71875 
z
" id="DejaVuSans-Bold-105"/>
      <path d="M 1.515625 54.6875 
L 19 54.6875 
L 32.625 16.890625 
L 46.1875 54.6875 
L 63.71875 54.6875 
L 42.1875 0 
L 23 0 
z
" id="DejaVuSans-Bold-118"/>
      <path id="DejaVuSans-Bold-32"/>
      <path d="M 9.1875 72.90625 
L 59.90625 72.90625 
L 59.90625 58.6875 
L 27.984375 58.6875 
L 27.984375 45.125 
L 58.015625 45.125 
L 58.015625 30.90625 
L 27.984375 30.90625 
L 27.984375 14.203125 
L 60.984375 14.203125 
L 60.984375 0 
L 9.1875 0 
z
" id="DejaVuSans-Bold-69"/>
      <path d="M 63.375 33.296875 
L 63.375 0 
L 45.796875 0 
L 45.796875 5.421875 
L 45.796875 25.484375 
Q 45.796875 32.5625 45.484375 35.25 
Q 45.171875 37.9375 44.390625 39.203125 
Q 43.359375 40.921875 41.59375 41.875 
Q 39.84375 42.828125 37.59375 42.828125 
Q 32.125 42.828125 29 38.59375 
Q 25.875 34.375 25.875 26.90625 
L 25.875 0 
L 8.40625 0 
L 8.40625 54.6875 
L 25.875 54.6875 
L 25.875 46.6875 
Q 29.828125 51.46875 34.265625 53.734375 
Q 38.71875 56 44.09375 56 
Q 53.5625 56 58.46875 50.1875 
Q 63.375 44.390625 63.375 33.296875 
z
" id="DejaVuSans-Bold-110"/>
      <path d="M 45.609375 9.28125 
Q 42 4.5 37.640625 2.25 
Q 33.296875 0 27.59375 0 
Q 17.578125 0 11.03125 7.875 
Q 4.5 15.765625 4.5 27.984375 
Q 4.5 40.234375 11.03125 48.0625 
Q 17.578125 55.90625 27.59375 55.90625 
Q 33.296875 55.90625 37.640625 53.65625 
Q 42 51.421875 45.609375 46.578125 
L 45.609375 54.6875 
L 63.1875 54.6875 
L 63.1875 5.515625 
Q 63.1875 -7.671875 54.859375 -14.625 
Q 46.53125 -21.578125 30.71875 -21.578125 
Q 25.59375 -21.578125 20.796875 -20.796875 
Q 16.015625 -20.015625 11.1875 -18.40625 
L 11.1875 -4.78125 
Q 15.765625 -7.421875 20.15625 -8.71875 
Q 24.5625 -10.015625 29 -10.015625 
Q 37.59375 -10.015625 41.59375 -6.25 
Q 45.609375 -2.484375 45.609375 5.515625 
z
M 34.078125 43.3125 
Q 28.65625 43.3125 25.625 39.296875 
Q 22.609375 35.296875 22.609375 27.984375 
Q 22.609375 20.453125 25.53125 16.578125 
Q 28.46875 12.703125 34.078125 12.703125 
Q 39.546875 12.703125 42.578125 16.703125 
Q 45.609375 20.703125 45.609375 27.984375 
Q 45.609375 35.296875 42.578125 39.296875 
Q 39.546875 43.3125 34.078125 43.3125 
z
" id="DejaVuSans-Bold-103"/>
      <path d="M 51.125 52.984375 
L 51.125 39.703125 
Q 45.515625 42.046875 40.28125 43.21875 
Q 35.0625 44.390625 30.421875 44.390625 
Q 25.4375 44.390625 23.015625 43.140625 
Q 20.609375 41.890625 20.609375 39.3125 
Q 20.609375 37.203125 22.4375 36.078125 
Q 24.265625 34.96875 29 34.421875 
L 32.078125 33.984375 
Q 45.515625 32.28125 50.140625 28.375 
Q 54.78125 24.46875 54.78125 16.109375 
Q 54.78125 7.375 48.328125 2.96875 
Q 41.890625 -1.421875 29.109375 -1.421875 
Q 23.6875 -1.421875 17.890625 -0.5625 
Q 12.109375 0.296875 6 2 
L 6 15.28125 
Q 11.234375 12.75 16.71875 11.46875 
Q 22.21875 10.203125 27.875 10.203125 
Q 33.015625 10.203125 35.59375 11.609375 
Q 38.1875 13.03125 38.1875 15.828125 
Q 38.1875 18.171875 36.40625 19.3125 
Q 34.625 20.453125 29.296875 21.09375 
L 26.21875 21.484375 
Q 14.546875 22.953125 9.859375 26.90625 
Q 5.171875 30.859375 5.171875 38.921875 
Q 5.171875 47.609375 11.125 51.796875 
Q 17.09375 56 29.390625 56 
Q 34.234375 56 39.546875 55.265625 
Q 44.875 54.546875 51.125 52.984375 
z
" id="DejaVuSans-Bold-115"/>
     </defs>
     <g transform="translate(17.837813 283.352188)rotate(-90)scale(0.14 -0.14)">
      <use xlink:href="#DejaVuSans-Bold-67"/>
      <use x="73.388672" xlink:href="#DejaVuSans-Bold-117"/>
      <use x="144.580078" xlink:href="#DejaVuSans-Bold-109"/>
      <use x="248.779297" xlink:href="#DejaVuSans-Bold-117"/>
      <use x="319.970703" xlink:href="#DejaVuSans-Bold-108"/>
      <use x="354.248047" xlink:href="#DejaVuSans-Bold-97"/>
      <use x="421.728516" xlink:href="#DejaVuSans-Bold-116"/>
      <use x="469.53125" xlink:href="#DejaVuSans-Bold-105"/>
      <use x="503.808594" xlink:href="#DejaVuSans-Bold-118"/>
      <use x="568.994141" xlink:href="#DejaVuSans-Bold-101"/>
      <use x="636.816406" xlink:href="#DejaVuSans-Bold-32"/>
      <use x="671.630859" xlink:href="#DejaVuSans-Bold-69"/>
      <use x="739.941406" xlink:href="#DejaVuSans-Bold-97"/>
      <use x="807.421875" xlink:href="#DejaVuSans-Bold-114"/>
      <use x="856.738281" xlink:href="#DejaVuSans-Bold-110"/>
      <use x="927.929688" xlink:href="#DejaVuSans-Bold-105"/>
      <use x="962.207031" xlink:href="#DejaVuSans-Bold-110"/>
      <use x="1033.398438" xlink:href="#DejaVuSans-Bold-103"/>
      <use x="1104.980469" xlink:href="#DejaVuSans-Bold-115"/>
     </g>
    </g>
   </g>
   <g id="PolyCollection_1">
    <path clip-path="url(#p01e986d62c)" d="M 82.281477 353.675862 
L 82.281477 353.675862 
L 83.252016 353.675862 
L 82.281477 348.167573 
z
" style="fill:#008000;fill-opacity:0.25;stroke:#008000;stroke-opacity:0.25;stroke-width:0.5;"/>
    <path clip-path="url(#p01e986d62c)" d="M 87.037053 353.675862 
L 89.007318 353.675862 
L 90.735635 353.675862 
L 89.007318 343.866807 
z
" style="fill:#008000;fill-opacity:0.25;stroke:#008000;stroke-opacity:0.25;stroke-width:0.5;"/>
    <path clip-path="url(#p01e986d62c)" d="M 91.983757 353.675862 
L 93.491212 353.675862 
L 95.733159 353.675862 
L 97.975106 353.675862 
L 100.217054 353.675862 
L 102.459001 353.675862 
L 104.700948 353.675862 
L 106.942895 353.675862 
L 109.184842 353.675862 
L 111.426789 353.675862 
L 113.668736 353.675862 
L 115.910683 353.675862 
L 118.15263 353.675862 
L 120.394577 353.675862 
L 122.636524 353.675862 
L 124.878471 353.675862 
L 127.120418 353.675862 
L 129.362365 353.675862 
L 131.604312 353.675862 
L 133.846259 353.675862 
L 136.088206 353.675862 
L 138.330153 353.675862 
L 140.5721 353.675862 
L 142.814047 353.675862 
L 145.055994 353.675862 
L 147.297941 353.675862 
L 149.539888 353.675862 
L 151.781835 353.675862 
L 154.023782 353.675862 
L 156.265729 353.675862 
L 158.507676 353.675862 
L 160.749623 353.675862 
L 162.99157 353.675862 
L 165.233517 353.675862 
L 167.475464 353.675862 
L 169.717411 353.675862 
L 171.959358 353.675862 
L 174.201305 353.675862 
L 176.443253 353.675862 
L 178.6852 353.675862 
L 180.927147 353.675862 
L 183.169094 353.675862 
L 185.411041 353.675862 
L 187.652988 353.675862 
L 189.894935 353.675862 
L 192.136882 353.675862 
L 194.378829 353.675862 
L 196.620776 353.675862 
L 198.862723 353.675862 
L 201.10467 353.675862 
L 203.346617 353.675862 
L 205.588564 353.675862 
L 207.830511 353.675862 
L 210.072458 353.675862 
L 212.314405 353.675862 
L 214.556352 353.675862 
L 216.798299 353.675862 
L 219.040246 353.675862 
L 221.282193 353.675862 
L 223.52414 353.675862 
L 225.766087 353.675862 
L 228.008034 353.675862 
L 230.249981 353.675862 
L 232.491928 353.675862 
L 234.733875 353.675862 
L 236.975822 353.675862 
L 239.217769 353.675862 
L 241.459716 353.675862 
L 243.701663 353.675862 
L 245.94361 353.675862 
L 248.185557 353.675862 
L 250.427504 353.675862 
L 252.669452 353.675862 
L 254.911399 353.675862 
L 257.153346 353.675862 
L 259.395293 353.675862 
L 261.63724 353.675862 
L 263.879187 353.675862 
L 266.121134 353.675862 
L 268.363081 353.675862 
L 270.605028 353.675862 
L 272.846975 353.675862 
L 275.088922 353.675862 
L 277.330869 353.675862 
L 279.572816 353.675862 
L 281.814763 353.675862 
L 284.05671 353.675862 
L 286.298657 353.675862 
L 288.540604 353.675862 
L 290.782551 353.675862 
L 293.024498 353.675862 
L 295.266445 353.675862 
L 297.508392 353.675862 
L 299.750339 353.675862 
L 301.992286 353.675862 
L 304.234233 353.675862 
L 306.47618 353.675862 
L 308.718127 353.675862 
L 310.960074 353.675862 
L 313.202021 353.675862 
L 315.443968 353.675862 
L 317.685915 353.675862 
L 319.927862 353.675862 
L 322.169809 353.675862 
L 324.411756 353.675862 
L 326.653703 353.675862 
L 328.895651 353.675862 
L 331.137598 353.675862 
L 333.379545 353.675862 
L 335.621492 353.675862 
L 337.863439 353.675862 
L 340.105386 353.675862 
L 342.347333 353.675862 
L 344.58928 353.675862 
L 346.831227 353.675862 
L 349.073174 353.675862 
L 351.315121 353.675862 
L 353.557068 353.675862 
L 355.799015 353.675862 
L 358.040962 353.675862 
L 360.282909 353.675862 
L 362.524856 353.675862 
L 364.766803 353.675862 
L 367.00875 353.675862 
L 369.250697 353.675862 
L 371.492644 353.675862 
L 373.734591 353.675862 
L 375.976538 353.675862 
L 378.218485 353.675862 
L 380.460432 353.675862 
L 382.702379 353.675862 
L 384.944326 353.675862 
L 387.186273 353.675862 
L 389.42822 353.675862 
L 391.670167 353.675862 
L 393.912114 353.675862 
L 396.154061 353.675862 
L 398.396008 353.675862 
L 400.637955 353.675862 
L 402.879902 353.675862 
L 405.121849 353.675862 
L 407.363797 353.675862 
L 409.605744 353.675862 
L 411.847691 353.675862 
L 414.089638 353.675862 
L 416.331585 353.675862 
L 418.573532 353.675862 
L 420.815479 353.675862 
L 423.057426 353.675862 
L 425.299373 353.675862 
L 427.54132 353.675862 
L 429.783267 353.675862 
L 432.025214 353.675862 
L 434.267161 353.675862 
L 436.509108 353.675862 
L 438.751055 353.675862 
L 440.993002 353.675862 
L 443.234949 353.675862 
L 445.476896 353.675862 
L 447.718843 353.675862 
L 449.96079 353.675862 
L 452.202737 353.675862 
L 454.444684 353.675862 
L 456.686631 353.675862 
L 458.928578 353.675862 
L 461.170525 353.675862 
L 463.412472 353.675862 
L 465.654419 353.675862 
L 467.896366 353.675862 
L 470.138313 353.675862 
L 472.38026 353.675862 
L 474.622207 353.675862 
L 476.864154 353.675862 
L 479.106101 353.675862 
L 481.348048 353.675862 
L 483.589996 353.675862 
L 485.831943 353.675862 
L 488.07389 353.675862 
L 490.315837 353.675862 
L 492.557784 353.675862 
L 494.799731 353.675862 
L 497.041678 353.675862 
L 499.283625 353.675862 
L 501.525572 353.675862 
L 503.767519 353.675862 
L 506.009466 353.675862 
L 508.251413 353.675862 
L 510.49336 353.675862 
L 512.735307 353.675862 
L 514.977254 353.675862 
L 517.219201 353.675862 
L 519.461148 353.675862 
L 521.703095 353.675862 
L 523.945042 353.675862 
L 526.186989 353.675862 
L 528.428936 353.675862 
L 530.670883 353.675862 
L 532.91283 353.675862 
L 535.154777 353.675862 
L 537.396724 353.675862 
L 539.638671 353.675862 
L 541.880618 353.675862 
L 544.122565 353.675862 
L 546.364512 353.675862 
L 548.606459 353.675862 
L 550.848406 353.675862 
L 553.090353 353.675862 
L 555.3323 353.675862 
L 557.574247 353.675862 
L 559.816195 353.675862 
L 562.058142 353.675862 
L 564.300089 353.675862 
L 566.542036 353.675862 
L 568.783983 353.675862 
L 571.02593 353.675862 
L 573.267877 353.675862 
L 575.509824 353.675862 
L 577.751771 353.675862 
L 579.993718 353.675862 
L 582.235665 353.675862 
L 584.477612 353.675862 
L 586.719559 353.675862 
L 588.961506 353.675862 
L 591.203453 353.675862 
L 593.4454 353.675862 
L 595.687347 353.675862 
L 597.929294 353.675862 
L 600.171241 353.675862 
L 602.413188 353.675862 
L 604.655135 353.675862 
L 606.897082 353.675862 
L 609.139029 353.675862 
L 611.380976 353.675862 
L 613.622923 353.675862 
L 615.86487 353.675862 
L 618.106817 353.675862 
L 620.348764 353.675862 
L 622.590711 353.675862 
L 624.832658 353.675862 
L 627.074605 353.675862 
L 629.316552 353.675862 
L 631.558499 353.675862 
L 633.800446 353.675862 
L 636.042394 353.675862 
L 638.284341 353.675862 
L 640.526288 353.675862 
L 642.768235 353.675862 
L 645.010182 353.675862 
L 647.252129 353.675862 
L 649.494076 353.675862 
L 651.736023 353.675862 
L 651.736023 353.675862 
L 651.736023 43.175819 
L 649.494076 59.335502 
L 647.252129 63.190922 
L 645.010182 50.466762 
L 642.768235 56.330055 
L 640.526288 60.420873 
L 638.284341 65.929162 
L 636.042394 69.784582 
L 633.800446 73.419875 
L 631.558499 75.091829 
L 629.316552 62.367669 
L 627.074605 68.230962 
L 624.832658 55.506802 
L 622.590711 42.782642 
L 620.348764 49.375029 
L 618.106817 54.883318 
L 615.86487 63.254543 
L 613.622923 69.84693 
L 611.380976 73.702351 
L 609.139029 81.14344 
L 606.897082 89.046416 
L 604.655135 92.901836 
L 602.413188 80.177676 
L 600.171241 67.453516 
L 597.929294 71.088808 
L 595.687347 58.364648 
L 593.4454 82.922277 
L 591.203453 86.55757 
L 588.961506 73.83341 
L 586.719559 77.924227 
L 584.477612 80.783346 
L 582.235665 84.874163 
L 579.993718 105.360061 
L 577.751771 114.258066 
L 575.509824 101.533906 
L 573.267877 118.711522 
L 571.02593 120.486543 
L 568.783983 107.762383 
L 566.542036 109.762621 
L 564.300089 118.660626 
L 562.058142 105.936466 
L 559.816195 111.130468 
L 557.574247 116.638757 
L 555.3323 124.541732 
L 553.090353 125.642372 
L 550.848406 133.083461 
L 548.606459 143.102465 
L 546.364512 148.610754 
L 544.122565 150.094391 
L 541.880618 155.957684 
L 539.638671 162.550071 
L 537.396724 170.921296 
L 535.154777 173.173472 
L 532.91283 175.425648 
L 530.670883 162.701488 
L 528.428936 149.977328 
L 526.186989 155.840621 
L 523.945042 143.116461 
L 521.703095 149.323307 
L 519.461148 136.599147 
L 517.219201 123.874986 
L 514.977254 111.150826 
L 512.735307 117.014119 
L 510.49336 120.86954 
L 508.251413 123.261682 
L 506.009466 126.896974 
L 503.767519 114.172814 
L 501.525572 101.448654 
L 499.283625 104.144904 
L 497.041678 107.366661 
L 494.799731 116.264666 
L 492.557784 121.772955 
L 490.315837 129.675931 
L 488.07389 116.951771 
L 485.831943 123.158616 
L 483.589996 124.933637 
L 481.348048 131.925563 
L 479.106101 147.194555 
L 476.864154 152.388557 
L 474.622207 154.928299 
L 472.38026 160.122301 
L 470.138313 164.732264 
L 467.896366 170.595557 
L 465.654419 175.489269 
L 463.412472 186.650902 
L 461.170525 195.022127 
L 458.928578 200.530416 
L 456.686631 211.133459 
L 454.444684 198.409299 
L 452.202737 203.603301 
L 449.96079 212.501306 
L 447.718843 220.872531 
L 445.476896 208.148371 
L 443.234949 213.342373 
L 440.993002 200.618213 
L 438.751055 206.481506 
L 436.509108 213.073893 
L 434.267161 200.349733 
L 432.025214 200.349733 
L 429.783267 187.625573 
L 427.54132 193.832418 
L 425.299373 200.039264 
L 423.057426 211.200897 
L 420.815479 198.476737 
L 418.573532 200.148691 
L 416.331585 207.140617 
L 414.089638 210.996038 
L 411.847691 215.88975 
L 409.605744 219.310004 
L 407.363797 206.585844 
L 405.121849 208.360864 
L 402.879902 213.554866 
L 400.637955 200.830706 
L 398.396008 207.037552 
L 396.154061 194.313392 
L 393.912114 201.75448 
L 391.670167 189.03032 
L 389.42822 194.224323 
L 387.186273 181.500162 
L 384.944326 183.172117 
L 382.702379 185.564259 
L 380.460432 191.072548 
L 378.218485 178.348388 
L 375.976538 182.439206 
L 373.734591 187.947494 
L 371.492644 197.966498 
L 369.250697 201.601791 
L 367.00875 188.87763 
L 364.766803 176.15347 
L 362.524856 181.661759 
L 360.282909 187.170048 
L 358.040962 193.033341 
L 355.799015 195.729591 
L 353.557068 202.721517 
L 351.315121 211.619522 
L 349.073174 198.895362 
L 346.831227 186.171202 
L 344.58928 190.513957 
L 342.347333 177.789797 
L 340.105386 187.808801 
L 337.863439 175.084641 
L 335.621492 183.455866 
L 333.379545 189.319159 
L 331.137598 176.594999 
L 328.895651 163.870839 
L 326.653703 172.768844 
L 324.411756 175.308586 
L 322.169809 184.206591 
L 319.927862 193.104596 
L 317.685915 201.007572 
L 315.443968 207.59996 
L 313.202021 211.45538 
L 310.960074 217.318673 
L 308.718127 204.594513 
L 306.47618 211.1869 
L 304.234233 198.46274 
L 301.992286 203.656742 
L 299.750339 209.520035 
L 297.508392 217.89126 
L 295.266445 219.563215 
L 293.024498 225.071504 
L 290.782551 233.969509 
L 288.540604 221.245349 
L 286.298657 227.452194 
L 284.05671 214.728034 
L 281.814763 223.099259 
L 279.572816 227.992971 
L 277.330869 230.68922 
L 275.088922 253.847192 
L 272.846975 258.457155 
L 270.605028 245.732995 
L 268.363081 252.325382 
L 266.121134 255.960675 
L 263.879187 261.823968 
L 261.63724 249.099808 
L 259.395293 236.375648 
L 257.153346 254.571196 
L 254.911399 272.766745 
L 252.669452 279.359133 
L 250.427504 266.634973 
L 248.185557 272.143261 
L 245.94361 280.514486 
L 243.701663 287.106874 
L 241.459716 274.382714 
L 239.217769 278.992677 
L 236.975822 284.500966 
L 234.733875 271.776806 
L 232.491928 277.285095 
L 230.249981 264.560934 
L 228.008034 251.836774 
L 225.766087 239.112614 
L 223.52414 245.31946 
L 221.282193 249.17488 
L 219.040246 257.546105 
L 216.798299 265.91733 
L 214.556352 253.19317 
L 212.314405 240.46901 
L 210.072458 227.74485 
L 207.830511 247.085573 
L 205.588564 253.292418 
L 203.346617 240.568258 
L 201.10467 243.605515 
L 198.862723 247.240808 
L 196.620776 253.104101 
L 194.378829 271.29965 
L 192.136882 275.15507 
L 189.894935 262.43091 
L 187.652988 249.70675 
L 185.411041 257.147839 
L 183.169094 244.423679 
L 180.927147 231.699519 
L 178.6852 234.091661 
L 176.443253 236.483803 
L 174.201305 244.386779 
L 171.959358 252.758004 
L 169.717411 257.952006 
L 167.475464 262.561969 
L 165.233517 268.425262 
L 162.99157 255.701102 
L 160.749623 263.142191 
L 158.507676 250.418031 
L 156.265729 254.508848 
L 154.023782 269.77784 
L 151.781835 275.286129 
L 149.539888 282.727218 
L 147.297941 288.235507 
L 145.055994 275.511347 
L 142.814047 280.705349 
L 140.5721 267.981189 
L 138.330153 255.257029 
L 136.088206 257.649171 
L 133.846259 261.069425 
L 131.604312 278.247041 
L 129.362365 285.68813 
L 127.120418 290.882132 
L 124.878471 296.076134 
L 122.636524 283.351974 
L 120.394577 289.215267 
L 118.15263 293.306084 
L 115.910683 296.941377 
L 113.668736 305.312602 
L 111.426789 309.655358 
L 109.184842 317.558333 
L 106.942895 321.901089 
L 104.700948 325.991907 
L 102.459001 331.500196 
L 100.217054 336.694198 
L 97.975106 342.901043 
L 95.733159 345.153219 
L 93.491212 347.692962 
z
" style="fill:#008000;fill-opacity:0.25;stroke:#008000;stroke-opacity:0.25;stroke-width:0.5;"/>
   </g>
   <g id="PolyCollection_2">
    <path clip-path="url(#p01e986d62c)" d="M 83.252016 353.675862 
L 84.523424 353.675862 
L 86.765371 353.675862 
L 87.037053 353.675862 
L 86.765371 355.02844 
L 84.523424 360.891733 
z
" style="fill:#ff0000;fill-opacity:0.25;stroke:#ff0000;stroke-opacity:0.25;stroke-width:0.5;"/>
    <path clip-path="url(#p01e986d62c)" d="M 90.735635 353.675862 
L 91.249265 353.675862 
L 91.983757 353.675862 
L 91.249265 356.590967 
z
" style="fill:#ff0000;fill-opacity:0.25;stroke:#ff0000;stroke-opacity:0.25;stroke-width:0.5;"/>
   </g>
   <g id="line2d_23">
    <path clip-path="url(#p01e986d62c)" d="M 82.281477 348.167573 
L 84.523424 360.891733 
L 86.765371 355.02844 
L 89.007318 343.866807 
L 91.249265 356.590967 
L 93.491212 347.692962 
L 95.733159 345.153219 
L 97.975106 342.901043 
L 100.217054 336.694198 
L 102.459001 331.500196 
L 104.700948 325.991907 
L 106.942895 321.901089 
L 109.184842 317.558333 
L 111.426789 309.655358 
L 113.668736 305.312602 
L 115.910683 296.941377 
L 118.15263 293.306084 
L 120.394577 289.215267 
L 122.636524 283.351974 
L 124.878471 296.076134 
L 129.362365 285.68813 
L 131.604312 278.247041 
L 133.846259 261.069425 
L 136.088206 257.649171 
L 138.330153 255.257029 
L 142.814047 280.705349 
L 145.055994 275.511347 
L 147.297941 288.235507 
L 149.539888 282.727218 
L 151.781835 275.286129 
L 154.023782 269.77784 
L 156.265729 254.508848 
L 158.507676 250.418031 
L 160.749623 263.142191 
L 162.99157 255.701102 
L 165.233517 268.425262 
L 167.475464 262.561969 
L 169.717411 257.952006 
L 171.959358 252.758004 
L 174.201305 244.386779 
L 176.443253 236.483803 
L 180.927147 231.699519 
L 185.411041 257.147839 
L 187.652988 249.70675 
L 192.136882 275.15507 
L 194.378829 271.29965 
L 196.620776 253.104101 
L 198.862723 247.240808 
L 201.10467 243.605515 
L 203.346617 240.568258 
L 205.588564 253.292418 
L 207.830511 247.085573 
L 210.072458 227.74485 
L 216.798299 265.91733 
L 221.282193 249.17488 
L 223.52414 245.31946 
L 225.766087 239.112614 
L 232.491928 277.285095 
L 234.733875 271.776806 
L 236.975822 284.500966 
L 239.217769 278.992677 
L 241.459716 274.382714 
L 243.701663 287.106874 
L 245.94361 280.514486 
L 248.185557 272.143261 
L 250.427504 266.634973 
L 252.669452 279.359133 
L 254.911399 272.766745 
L 259.395293 236.375648 
L 263.879187 261.823968 
L 266.121134 255.960675 
L 268.363081 252.325382 
L 270.605028 245.732995 
L 272.846975 258.457155 
L 275.088922 253.847192 
L 277.330869 230.68922 
L 279.572816 227.992971 
L 281.814763 223.099259 
L 284.05671 214.728034 
L 286.298657 227.452194 
L 288.540604 221.245349 
L 290.782551 233.969509 
L 293.024498 225.071504 
L 295.266445 219.563215 
L 297.508392 217.89126 
L 299.750339 209.520035 
L 301.992286 203.656742 
L 304.234233 198.46274 
L 306.47618 211.1869 
L 308.718127 204.594513 
L 310.960074 217.318673 
L 313.202021 211.45538 
L 315.443968 207.59996 
L 317.685915 201.007572 
L 319.927862 193.104596 
L 324.411756 175.308586 
L 326.653703 172.768844 
L 328.895651 163.870839 
L 333.379545 189.319159 
L 335.621492 183.455866 
L 337.863439 175.084641 
L 340.105386 187.808801 
L 342.347333 177.789797 
L 344.58928 190.513957 
L 346.831227 186.171202 
L 351.315121 211.619522 
L 353.557068 202.721517 
L 355.799015 195.729591 
L 358.040962 193.033341 
L 360.282909 187.170048 
L 364.766803 176.15347 
L 369.250697 201.601791 
L 371.492644 197.966498 
L 373.734591 187.947494 
L 375.976538 182.439206 
L 378.218485 178.348388 
L 380.460432 191.072548 
L 382.702379 185.564259 
L 384.944326 183.172117 
L 387.186273 181.500162 
L 389.42822 194.224323 
L 391.670167 189.03032 
L 393.912114 201.75448 
L 396.154061 194.313392 
L 398.396008 207.037552 
L 400.637955 200.830706 
L 402.879902 213.554866 
L 405.121849 208.360864 
L 407.363797 206.585844 
L 409.605744 219.310004 
L 411.847691 215.88975 
L 414.089638 210.996038 
L 416.331585 207.140617 
L 418.573532 200.148691 
L 420.815479 198.476737 
L 423.057426 211.200897 
L 425.299373 200.039264 
L 429.783267 187.625573 
L 432.025214 200.349733 
L 434.267161 200.349733 
L 436.509108 213.073893 
L 438.751055 206.481506 
L 440.993002 200.618213 
L 443.234949 213.342373 
L 445.476896 208.148371 
L 447.718843 220.872531 
L 449.96079 212.501306 
L 452.202737 203.603301 
L 454.444684 198.409299 
L 456.686631 211.133459 
L 458.928578 200.530416 
L 461.170525 195.022127 
L 463.412472 186.650902 
L 465.654419 175.489269 
L 467.896366 170.595557 
L 470.138313 164.732264 
L 472.38026 160.122301 
L 474.622207 154.928299 
L 476.864154 152.388557 
L 479.106101 147.194555 
L 481.348048 131.925563 
L 483.589996 124.933637 
L 485.831943 123.158616 
L 488.07389 116.951771 
L 490.315837 129.675931 
L 492.557784 121.772955 
L 494.799731 116.264666 
L 497.041678 107.366661 
L 499.283625 104.144904 
L 501.525572 101.448654 
L 506.009466 126.896974 
L 508.251413 123.261682 
L 510.49336 120.86954 
L 512.735307 117.014119 
L 514.977254 111.150826 
L 521.703095 149.323307 
L 523.945042 143.116461 
L 526.186989 155.840621 
L 528.428936 149.977328 
L 532.91283 175.425648 
L 537.396724 170.921296 
L 539.638671 162.550071 
L 541.880618 155.957684 
L 544.122565 150.094391 
L 546.364512 148.610754 
L 548.606459 143.102465 
L 550.848406 133.083461 
L 553.090353 125.642372 
L 555.3323 124.541732 
L 557.574247 116.638757 
L 559.816195 111.130468 
L 562.058142 105.936466 
L 564.300089 118.660626 
L 566.542036 109.762621 
L 568.783983 107.762383 
L 571.02593 120.486543 
L 573.267877 118.711522 
L 575.509824 101.533906 
L 577.751771 114.258066 
L 579.993718 105.360061 
L 582.235665 84.874163 
L 584.477612 80.783346 
L 586.719559 77.924227 
L 588.961506 73.83341 
L 591.203453 86.55757 
L 593.4454 82.922277 
L 595.687347 58.364648 
L 597.929294 71.088808 
L 600.171241 67.453516 
L 604.655135 92.901836 
L 606.897082 89.046416 
L 609.139029 81.14344 
L 611.380976 73.702351 
L 613.622923 69.84693 
L 615.86487 63.254543 
L 618.106817 54.883318 
L 620.348764 49.375029 
L 622.590711 42.782642 
L 627.074605 68.230962 
L 629.316552 62.367669 
L 631.558499 75.091829 
L 633.800446 73.419875 
L 636.042394 69.784582 
L 638.284341 65.929162 
L 640.526288 60.420873 
L 642.768235 56.330055 
L 645.010182 50.466762 
L 647.252129 63.190922 
L 649.494076 59.335502 
L 651.736023 43.175819 
L 651.736023 43.175819 
" style="fill:none;stroke:#000000;stroke-width:2;"/>
   </g>
   <g id="line2d_24">
    <path clip-path="url(#p01e986d62c)" d="M 53.80875 353.675862 
L 680.20875 353.675862 
" style="fill:none;stroke:#000000;"/>
   </g>
   <g id="patch_3">
    <path d="M 53.80875 376.797188 
L 53.80875 26.877187 
" style="fill:none;stroke:#f0f0f0;stroke-linecap:square;stroke-linejoin:miter;stroke-width:3;"/>
   </g>
   <g id="patch_4">
    <path d="M 680.20875 376.797188 
L 680.20875 26.877187 
" style="fill:none;stroke:#f0f0f0;stroke-linecap:square;stroke-linejoin:miter;stroke-width:3;"/>
   </g>
   <g id="patch_5">
    <path d="M 53.80875 376.797188 
L 680.20875 376.797188 
" style="fill:none;stroke:#f0f0f0;stroke-linecap:square;stroke-linejoin:miter;stroke-width:3;"/>
   </g>
   <g id="patch_6">
    <path d="M 53.80875 26.877187 
L 680.20875 26.877187 
" style="fill:none;stroke:#f0f0f0;stroke-linecap:square;stroke-linejoin:miter;stroke-width:3;"/>
   </g>
   <g id="text_14">
    <!-- GitHub: michael-rowland -->
    <defs>
     <path d="M 59.515625 10.40625 
L 59.515625 29.984375 
L 43.40625 29.984375 
L 43.40625 38.09375 
L 69.28125 38.09375 
L 69.28125 6.78125 
Q 63.578125 2.734375 56.6875 0.65625 
Q 49.8125 -1.421875 42 -1.421875 
Q 24.90625 -1.421875 15.25 8.5625 
Q 5.609375 18.5625 5.609375 36.375 
Q 5.609375 54.25 15.25 64.234375 
Q 24.90625 74.21875 42 74.21875 
Q 49.125 74.21875 55.546875 72.453125 
Q 61.96875 70.703125 67.390625 67.28125 
L 67.390625 56.78125 
Q 61.921875 61.421875 55.765625 63.765625 
Q 49.609375 66.109375 42.828125 66.109375 
Q 29.4375 66.109375 22.71875 58.640625 
Q 16.015625 51.171875 16.015625 36.375 
Q 16.015625 21.625 22.71875 14.15625 
Q 29.4375 6.6875 42.828125 6.6875 
Q 48.046875 6.6875 52.140625 7.59375 
Q 56.25 8.5 59.515625 10.40625 
z
" id="DejaVuSans-71"/>
     <path d="M 9.421875 54.6875 
L 18.40625 54.6875 
L 18.40625 0 
L 9.421875 0 
z
M 9.421875 75.984375 
L 18.40625 75.984375 
L 18.40625 64.59375 
L 9.421875 64.59375 
z
" id="DejaVuSans-105"/>
     <path d="M 18.3125 70.21875 
L 18.3125 54.6875 
L 36.8125 54.6875 
L 36.8125 47.703125 
L 18.3125 47.703125 
L 18.3125 18.015625 
Q 18.3125 11.328125 20.140625 9.421875 
Q 21.96875 7.515625 27.59375 7.515625 
L 36.8125 7.515625 
L 36.8125 0 
L 27.59375 0 
Q 17.1875 0 13.234375 3.875 
Q 9.28125 7.765625 9.28125 18.015625 
L 9.28125 47.703125 
L 2.6875 47.703125 
L 2.6875 54.6875 
L 9.28125 54.6875 
L 9.28125 70.21875 
z
" id="DejaVuSans-116"/>
     <path d="M 9.8125 72.90625 
L 19.671875 72.90625 
L 19.671875 43.015625 
L 55.515625 43.015625 
L 55.515625 72.90625 
L 65.375 72.90625 
L 65.375 0 
L 55.515625 0 
L 55.515625 34.71875 
L 19.671875 34.71875 
L 19.671875 0 
L 9.8125 0 
z
" id="DejaVuSans-72"/>
     <path d="M 8.5 21.578125 
L 8.5 54.6875 
L 17.484375 54.6875 
L 17.484375 21.921875 
Q 17.484375 14.15625 20.5 10.265625 
Q 23.53125 6.390625 29.59375 6.390625 
Q 36.859375 6.390625 41.078125 11.03125 
Q 45.3125 15.671875 45.3125 23.6875 
L 45.3125 54.6875 
L 54.296875 54.6875 
L 54.296875 0 
L 45.3125 0 
L 45.3125 8.40625 
Q 42.046875 3.421875 37.71875 1 
Q 33.40625 -1.421875 27.6875 -1.421875 
Q 18.265625 -1.421875 13.375 4.4375 
Q 8.5 10.296875 8.5 21.578125 
z
M 31.109375 56 
z
" id="DejaVuSans-117"/>
     <path d="M 48.6875 27.296875 
Q 48.6875 37.203125 44.609375 42.84375 
Q 40.53125 48.484375 33.40625 48.484375 
Q 26.265625 48.484375 22.1875 42.84375 
Q 18.109375 37.203125 18.109375 27.296875 
Q 18.109375 17.390625 22.1875 11.75 
Q 26.265625 6.109375 33.40625 6.109375 
Q 40.53125 6.109375 44.609375 11.75 
Q 48.6875 17.390625 48.6875 27.296875 
z
M 18.109375 46.390625 
Q 20.953125 51.265625 25.265625 53.625 
Q 29.59375 56 35.59375 56 
Q 45.5625 56 51.78125 48.09375 
Q 58.015625 40.1875 58.015625 27.296875 
Q 58.015625 14.40625 51.78125 6.484375 
Q 45.5625 -1.421875 35.59375 -1.421875 
Q 29.59375 -1.421875 25.265625 0.953125 
Q 20.953125 3.328125 18.109375 8.203125 
L 18.109375 0 
L 9.078125 0 
L 9.078125 75.984375 
L 18.109375 75.984375 
z
" id="DejaVuSans-98"/>
     <path d="M 11.71875 12.40625 
L 22.015625 12.40625 
L 22.015625 0 
L 11.71875 0 
z
M 11.71875 51.703125 
L 22.015625 51.703125 
L 22.015625 39.3125 
L 11.71875 39.3125 
z
" id="DejaVuSans-58"/>
     <path id="DejaVuSans-32"/>
     <path d="M 52 44.1875 
Q 55.375 50.25 60.0625 53.125 
Q 64.75 56 71.09375 56 
Q 79.640625 56 84.28125 50.015625 
Q 88.921875 44.046875 88.921875 33.015625 
L 88.921875 0 
L 79.890625 0 
L 79.890625 32.71875 
Q 79.890625 40.578125 77.09375 44.375 
Q 74.3125 48.1875 68.609375 48.1875 
Q 61.625 48.1875 57.5625 43.546875 
Q 53.515625 38.921875 53.515625 30.90625 
L 53.515625 0 
L 44.484375 0 
L 44.484375 32.71875 
Q 44.484375 40.625 41.703125 44.40625 
Q 38.921875 48.1875 33.109375 48.1875 
Q 26.21875 48.1875 22.15625 43.53125 
Q 18.109375 38.875 18.109375 30.90625 
L 18.109375 0 
L 9.078125 0 
L 9.078125 54.6875 
L 18.109375 54.6875 
L 18.109375 46.1875 
Q 21.1875 51.21875 25.484375 53.609375 
Q 29.78125 56 35.6875 56 
Q 41.65625 56 45.828125 52.96875 
Q 50 49.953125 52 44.1875 
z
" id="DejaVuSans-109"/>
     <path d="M 48.78125 52.59375 
L 48.78125 44.1875 
Q 44.96875 46.296875 41.140625 47.34375 
Q 37.3125 48.390625 33.40625 48.390625 
Q 24.65625 48.390625 19.8125 42.84375 
Q 14.984375 37.3125 14.984375 27.296875 
Q 14.984375 17.28125 19.8125 11.734375 
Q 24.65625 6.203125 33.40625 6.203125 
Q 37.3125 6.203125 41.140625 7.25 
Q 44.96875 8.296875 48.78125 10.40625 
L 48.78125 2.09375 
Q 45.015625 0.34375 40.984375 -0.53125 
Q 36.96875 -1.421875 32.421875 -1.421875 
Q 20.0625 -1.421875 12.78125 6.34375 
Q 5.515625 14.109375 5.515625 27.296875 
Q 5.515625 40.671875 12.859375 48.328125 
Q 20.21875 56 33.015625 56 
Q 37.15625 56 41.109375 55.140625 
Q 45.0625 54.296875 48.78125 52.59375 
z
" id="DejaVuSans-99"/>
     <path d="M 54.890625 33.015625 
L 54.890625 0 
L 45.90625 0 
L 45.90625 32.71875 
Q 45.90625 40.484375 42.875 44.328125 
Q 39.84375 48.1875 33.796875 48.1875 
Q 26.515625 48.1875 22.3125 43.546875 
Q 18.109375 38.921875 18.109375 30.90625 
L 18.109375 0 
L 9.078125 0 
L 9.078125 75.984375 
L 18.109375 75.984375 
L 18.109375 46.1875 
Q 21.34375 51.125 25.703125 53.5625 
Q 30.078125 56 35.796875 56 
Q 45.21875 56 50.046875 50.171875 
Q 54.890625 44.34375 54.890625 33.015625 
z
" id="DejaVuSans-104"/>
     <path d="M 34.28125 27.484375 
Q 23.390625 27.484375 19.1875 25 
Q 14.984375 22.515625 14.984375 16.5 
Q 14.984375 11.71875 18.140625 8.90625 
Q 21.296875 6.109375 26.703125 6.109375 
Q 34.1875 6.109375 38.703125 11.40625 
Q 43.21875 16.703125 43.21875 25.484375 
L 43.21875 27.484375 
z
M 52.203125 31.203125 
L 52.203125 0 
L 43.21875 0 
L 43.21875 8.296875 
Q 40.140625 3.328125 35.546875 0.953125 
Q 30.953125 -1.421875 24.3125 -1.421875 
Q 15.921875 -1.421875 10.953125 3.296875 
Q 6 8.015625 6 15.921875 
Q 6 25.140625 12.171875 29.828125 
Q 18.359375 34.515625 30.609375 34.515625 
L 43.21875 34.515625 
L 43.21875 35.40625 
Q 43.21875 41.609375 39.140625 45 
Q 35.0625 48.390625 27.6875 48.390625 
Q 23 48.390625 18.546875 47.265625 
Q 14.109375 46.140625 10.015625 43.890625 
L 10.015625 52.203125 
Q 14.9375 54.109375 19.578125 55.046875 
Q 24.21875 56 28.609375 56 
Q 40.484375 56 46.34375 49.84375 
Q 52.203125 43.703125 52.203125 31.203125 
z
" id="DejaVuSans-97"/>
     <path d="M 56.203125 29.59375 
L 56.203125 25.203125 
L 14.890625 25.203125 
Q 15.484375 15.921875 20.484375 11.0625 
Q 25.484375 6.203125 34.421875 6.203125 
Q 39.59375 6.203125 44.453125 7.46875 
Q 49.3125 8.734375 54.109375 11.28125 
L 54.109375 2.78125 
Q 49.265625 0.734375 44.1875 -0.34375 
Q 39.109375 -1.421875 33.890625 -1.421875 
Q 20.796875 -1.421875 13.15625 6.1875 
Q 5.515625 13.8125 5.515625 26.8125 
Q 5.515625 40.234375 12.765625 48.109375 
Q 20.015625 56 32.328125 56 
Q 43.359375 56 49.78125 48.890625 
Q 56.203125 41.796875 56.203125 29.59375 
z
M 47.21875 32.234375 
Q 47.125 39.59375 43.09375 43.984375 
Q 39.0625 48.390625 32.421875 48.390625 
Q 24.90625 48.390625 20.390625 44.140625 
Q 15.875 39.890625 15.1875 32.171875 
z
" id="DejaVuSans-101"/>
     <path d="M 9.421875 75.984375 
L 18.40625 75.984375 
L 18.40625 0 
L 9.421875 0 
z
" id="DejaVuSans-108"/>
     <path d="M 4.890625 31.390625 
L 31.203125 31.390625 
L 31.203125 23.390625 
L 4.890625 23.390625 
z
" id="DejaVuSans-45"/>
     <path d="M 41.109375 46.296875 
Q 39.59375 47.171875 37.8125 47.578125 
Q 36.03125 48 33.890625 48 
Q 26.265625 48 22.1875 43.046875 
Q 18.109375 38.09375 18.109375 28.8125 
L 18.109375 0 
L 9.078125 0 
L 9.078125 54.6875 
L 18.109375 54.6875 
L 18.109375 46.1875 
Q 20.953125 51.171875 25.484375 53.578125 
Q 30.03125 56 36.53125 56 
Q 37.453125 56 38.578125 55.875 
Q 39.703125 55.765625 41.0625 55.515625 
z
" id="DejaVuSans-114"/>
     <path d="M 30.609375 48.390625 
Q 23.390625 48.390625 19.1875 42.75 
Q 14.984375 37.109375 14.984375 27.296875 
Q 14.984375 17.484375 19.15625 11.84375 
Q 23.34375 6.203125 30.609375 6.203125 
Q 37.796875 6.203125 41.984375 11.859375 
Q 46.1875 17.53125 46.1875 27.296875 
Q 46.1875 37.015625 41.984375 42.703125 
Q 37.796875 48.390625 30.609375 48.390625 
z
M 30.609375 56 
Q 42.328125 56 49.015625 48.375 
Q 55.71875 40.765625 55.71875 27.296875 
Q 55.71875 13.875 49.015625 6.21875 
Q 42.328125 -1.421875 30.609375 -1.421875 
Q 18.84375 -1.421875 12.171875 6.21875 
Q 5.515625 13.875 5.515625 27.296875 
Q 5.515625 40.765625 12.171875 48.375 
Q 18.84375 56 30.609375 56 
z
" id="DejaVuSans-111"/>
     <path d="M 4.203125 54.6875 
L 13.1875 54.6875 
L 24.421875 12.015625 
L 35.59375 54.6875 
L 46.1875 54.6875 
L 57.421875 12.015625 
L 68.609375 54.6875 
L 77.59375 54.6875 
L 63.28125 0 
L 52.6875 0 
L 40.921875 44.828125 
L 29.109375 0 
L 18.5 0 
z
" id="DejaVuSans-119"/>
     <path d="M 54.890625 33.015625 
L 54.890625 0 
L 45.90625 0 
L 45.90625 32.71875 
Q 45.90625 40.484375 42.875 44.328125 
Q 39.84375 48.1875 33.796875 48.1875 
Q 26.515625 48.1875 22.3125 43.546875 
Q 18.109375 38.921875 18.109375 30.90625 
L 18.109375 0 
L 9.078125 0 
L 9.078125 54.6875 
L 18.109375 54.6875 
L 18.109375 46.1875 
Q 21.34375 51.125 25.703125 53.5625 
Q 30.078125 56 35.796875 56 
Q 45.21875 56 50.046875 50.171875 
Q 54.890625 44.34375 54.890625 33.015625 
z
" id="DejaVuSans-110"/>
     <path d="M 45.40625 46.390625 
L 45.40625 75.984375 
L 54.390625 75.984375 
L 54.390625 0 
L 45.40625 0 
L 45.40625 8.203125 
Q 42.578125 3.328125 38.25 0.953125 
Q 33.9375 -1.421875 27.875 -1.421875 
Q 17.96875 -1.421875 11.734375 6.484375 
Q 5.515625 14.40625 5.515625 27.296875 
Q 5.515625 40.1875 11.734375 48.09375 
Q 17.96875 56 27.875 56 
Q 33.9375 56 38.25 53.625 
Q 42.578125 51.265625 45.40625 46.390625 
z
M 14.796875 27.296875 
Q 14.796875 17.390625 18.875 11.75 
Q 22.953125 6.109375 30.078125 6.109375 
Q 37.203125 6.109375 41.296875 11.75 
Q 45.40625 17.390625 45.40625 27.296875 
Q 45.40625 37.203125 41.296875 42.84375 
Q 37.203125 48.484375 30.078125 48.484375 
Q 22.953125 48.484375 18.875 42.84375 
Q 14.796875 37.203125 14.796875 27.296875 
z
" id="DejaVuSans-100"/>
    </defs>
    <g style="fill:#808080;" transform="translate(553.090353 406.335889)scale(0.08 -0.08)">
     <use xlink:href="#DejaVuSans-71"/>
     <use x="77.490234" xlink:href="#DejaVuSans-105"/>
     <use x="105.273438" xlink:href="#DejaVuSans-116"/>
     <use x="144.482422" xlink:href="#DejaVuSans-72"/>
     <use x="219.677734" xlink:href="#DejaVuSans-117"/>
     <use x="283.056641" xlink:href="#DejaVuSans-98"/>
     <use x="346.533203" xlink:href="#DejaVuSans-58"/>
     <use x="380.224609" xlink:href="#DejaVuSans-32"/>
     <use x="412.011719" xlink:href="#DejaVuSans-109"/>
     <use x="509.423828" xlink:href="#DejaVuSans-105"/>
     <use x="537.207031" xlink:href="#DejaVuSans-99"/>
     <use x="592.1875" xlink:href="#DejaVuSans-104"/>
     <use x="655.566406" xlink:href="#DejaVuSans-97"/>
     <use x="716.845703" xlink:href="#DejaVuSans-101"/>
     <use x="778.369141" xlink:href="#DejaVuSans-108"/>
     <use x="806.152344" xlink:href="#DejaVuSans-45"/>
     <use x="842.236328" xlink:href="#DejaVuSans-114"/>
     <use x="881.099609" xlink:href="#DejaVuSans-111"/>
     <use x="942.28125" xlink:href="#DejaVuSans-119"/>
     <use x="1024.068359" xlink:href="#DejaVuSans-108"/>
     <use x="1051.851562" xlink:href="#DejaVuSans-97"/>
     <use x="1113.130859" xlink:href="#DejaVuSans-110"/>
     <use x="1176.509766" xlink:href="#DejaVuSans-100"/>
    </g>
   </g>
   <g id="text_15">
    <!-- Bet On Top 3 ELO Favorites (2015-2019) -->
    <defs>
     <path d="M 38.375 44.671875 
Q 42.828125 44.671875 45.109375 46.625 
Q 47.40625 48.578125 47.40625 52.390625 
Q 47.40625 56.15625 45.109375 58.125 
Q 42.828125 60.109375 38.375 60.109375 
L 27.984375 60.109375 
L 27.984375 44.671875 
z
M 39.015625 12.796875 
Q 44.671875 12.796875 47.53125 15.1875 
Q 50.390625 17.578125 50.390625 22.40625 
Q 50.390625 27.15625 47.5625 29.515625 
Q 44.734375 31.890625 39.015625 31.890625 
L 27.984375 31.890625 
L 27.984375 12.796875 
z
M 56.5 39.015625 
Q 62.546875 37.25 65.859375 32.515625 
Q 69.1875 27.78125 69.1875 20.90625 
Q 69.1875 10.359375 62.0625 5.171875 
Q 54.9375 0 40.375 0 
L 9.1875 0 
L 9.1875 72.90625 
L 37.40625 72.90625 
Q 52.59375 72.90625 59.40625 68.3125 
Q 66.21875 63.71875 66.21875 53.609375 
Q 66.21875 48.296875 63.71875 44.5625 
Q 61.234375 40.828125 56.5 39.015625 
z
" id="DejaVuSans-Bold-66"/>
     <path d="M 42.484375 60.59375 
Q 33.890625 60.59375 29.15625 54.25 
Q 24.421875 47.90625 24.421875 36.375 
Q 24.421875 24.90625 29.15625 18.546875 
Q 33.890625 12.203125 42.484375 12.203125 
Q 51.125 12.203125 55.859375 18.546875 
Q 60.59375 24.90625 60.59375 36.375 
Q 60.59375 47.90625 55.859375 54.25 
Q 51.125 60.59375 42.484375 60.59375 
z
M 42.484375 74.21875 
Q 60.0625 74.21875 70.015625 64.15625 
Q 79.984375 54.109375 79.984375 36.375 
Q 79.984375 18.703125 70.015625 8.640625 
Q 60.0625 -1.421875 42.484375 -1.421875 
Q 24.953125 -1.421875 14.96875 8.640625 
Q 4.984375 18.703125 4.984375 36.375 
Q 4.984375 54.109375 14.96875 64.15625 
Q 24.953125 74.21875 42.484375 74.21875 
z
" id="DejaVuSans-Bold-79"/>
     <path d="M 0.484375 72.90625 
L 67.671875 72.90625 
L 67.671875 58.6875 
L 43.5 58.6875 
L 43.5 0 
L 24.703125 0 
L 24.703125 58.6875 
L 0.484375 58.6875 
z
" id="DejaVuSans-Bold-84"/>
     <path d="M 34.421875 43.5 
Q 28.609375 43.5 25.5625 39.328125 
Q 22.515625 35.15625 22.515625 27.296875 
Q 22.515625 19.4375 25.5625 15.25 
Q 28.609375 11.078125 34.421875 11.078125 
Q 40.140625 11.078125 43.15625 15.25 
Q 46.1875 19.4375 46.1875 27.296875 
Q 46.1875 35.15625 43.15625 39.328125 
Q 40.140625 43.5 34.421875 43.5 
z
M 34.421875 56 
Q 48.53125 56 56.46875 48.375 
Q 64.40625 40.765625 64.40625 27.296875 
Q 64.40625 13.8125 56.46875 6.1875 
Q 48.53125 -1.421875 34.421875 -1.421875 
Q 20.265625 -1.421875 12.28125 6.1875 
Q 4.296875 13.8125 4.296875 27.296875 
Q 4.296875 40.765625 12.28125 48.375 
Q 20.265625 56 34.421875 56 
z
" id="DejaVuSans-Bold-111"/>
     <path d="M 25.875 7.90625 
L 25.875 -20.796875 
L 8.40625 -20.796875 
L 8.40625 54.6875 
L 25.875 54.6875 
L 25.875 46.6875 
Q 29.5 51.46875 33.890625 53.734375 
Q 38.28125 56 44 56 
Q 54.109375 56 60.59375 47.96875 
Q 67.09375 39.9375 67.09375 27.296875 
Q 67.09375 14.65625 60.59375 6.609375 
Q 54.109375 -1.421875 44 -1.421875 
Q 38.28125 -1.421875 33.890625 0.84375 
Q 29.5 3.125 25.875 7.90625 
z
M 37.5 43.3125 
Q 31.890625 43.3125 28.875 39.1875 
Q 25.875 35.0625 25.875 27.296875 
Q 25.875 19.53125 28.875 15.40625 
Q 31.890625 11.28125 37.5 11.28125 
Q 43.109375 11.28125 46.0625 15.375 
Q 49.03125 19.484375 49.03125 27.296875 
Q 49.03125 35.109375 46.0625 39.203125 
Q 43.109375 43.3125 37.5 43.3125 
z
" id="DejaVuSans-Bold-112"/>
     <path d="M 46.578125 39.3125 
Q 53.953125 37.40625 57.78125 32.6875 
Q 61.625 27.984375 61.625 20.703125 
Q 61.625 9.859375 53.3125 4.21875 
Q 45.015625 -1.421875 29.109375 -1.421875 
Q 23.484375 -1.421875 17.84375 -0.515625 
Q 12.203125 0.390625 6.6875 2.203125 
L 6.6875 16.703125 
Q 11.96875 14.0625 17.15625 12.71875 
Q 22.359375 11.375 27.390625 11.375 
Q 34.859375 11.375 38.84375 13.953125 
Q 42.828125 16.546875 42.828125 21.390625 
Q 42.828125 26.375 38.75 28.9375 
Q 34.671875 31.5 26.703125 31.5 
L 19.1875 31.5 
L 19.1875 43.609375 
L 27.09375 43.609375 
Q 34.1875 43.609375 37.640625 45.828125 
Q 41.109375 48.046875 41.109375 52.59375 
Q 41.109375 56.78125 37.734375 59.078125 
Q 34.375 61.375 28.21875 61.375 
Q 23.6875 61.375 19.046875 60.34375 
Q 14.40625 59.328125 9.8125 57.328125 
L 9.8125 71.09375 
Q 15.375 72.65625 20.84375 73.4375 
Q 26.3125 74.21875 31.59375 74.21875 
Q 45.796875 74.21875 52.84375 69.546875 
Q 59.90625 64.890625 59.90625 55.515625 
Q 59.90625 49.125 56.53125 45.046875 
Q 53.171875 40.96875 46.578125 39.3125 
z
" id="DejaVuSans-Bold-51"/>
     <path d="M 9.1875 72.90625 
L 27.984375 72.90625 
L 27.984375 14.203125 
L 60.984375 14.203125 
L 60.984375 0 
L 9.1875 0 
z
" id="DejaVuSans-Bold-76"/>
     <path d="M 9.1875 72.90625 
L 59.90625 72.90625 
L 59.90625 58.6875 
L 27.984375 58.6875 
L 27.984375 45.125 
L 58.015625 45.125 
L 58.015625 30.90625 
L 27.984375 30.90625 
L 27.984375 0 
L 9.1875 0 
z
" id="DejaVuSans-Bold-70"/>
     <path d="M 37.703125 -13.1875 
L 23.1875 -13.1875 
Q 15.71875 -1.125 12.15625 9.734375 
Q 8.59375 20.609375 8.59375 31.296875 
Q 8.59375 42 12.171875 52.953125 
Q 15.765625 63.921875 23.1875 75.875 
L 37.703125 75.875 
Q 31.453125 64.3125 28.328125 53.25 
Q 25.203125 42.1875 25.203125 31.390625 
Q 25.203125 20.609375 28.296875 9.515625 
Q 31.390625 -1.5625 37.703125 -13.1875 
z
" id="DejaVuSans-Bold-40"/>
     <path d="M 28.8125 13.8125 
L 60.890625 13.8125 
L 60.890625 0 
L 7.90625 0 
L 7.90625 13.8125 
L 34.515625 37.3125 
Q 38.09375 40.53125 39.796875 43.609375 
Q 41.5 46.6875 41.5 50 
Q 41.5 55.125 38.0625 58.25 
Q 34.625 61.375 28.90625 61.375 
Q 24.515625 61.375 19.28125 59.5 
Q 14.0625 57.625 8.109375 53.90625 
L 8.109375 69.921875 
Q 14.453125 72.015625 20.65625 73.109375 
Q 26.859375 74.21875 32.8125 74.21875 
Q 45.90625 74.21875 53.15625 68.453125 
Q 60.40625 62.703125 60.40625 52.390625 
Q 60.40625 46.4375 57.328125 41.28125 
Q 54.25 36.140625 44.390625 27.484375 
z
" id="DejaVuSans-Bold-50"/>
     <path d="M 46 36.53125 
Q 46 50.203125 43.4375 55.78125 
Q 40.875 61.375 34.8125 61.375 
Q 28.765625 61.375 26.171875 55.78125 
Q 23.578125 50.203125 23.578125 36.53125 
Q 23.578125 22.703125 26.171875 17.03125 
Q 28.765625 11.375 34.8125 11.375 
Q 40.828125 11.375 43.40625 17.03125 
Q 46 22.703125 46 36.53125 
z
M 64.796875 36.375 
Q 64.796875 18.265625 56.984375 8.421875 
Q 49.171875 -1.421875 34.8125 -1.421875 
Q 20.40625 -1.421875 12.59375 8.421875 
Q 4.78125 18.265625 4.78125 36.375 
Q 4.78125 54.546875 12.59375 64.375 
Q 20.40625 74.21875 34.8125 74.21875 
Q 49.171875 74.21875 56.984375 64.375 
Q 64.796875 54.546875 64.796875 36.375 
z
" id="DejaVuSans-Bold-48"/>
     <path d="M 11.71875 12.984375 
L 28.328125 12.984375 
L 28.328125 60.109375 
L 11.28125 56.59375 
L 11.28125 69.390625 
L 28.21875 72.90625 
L 46.09375 72.90625 
L 46.09375 12.984375 
L 62.703125 12.984375 
L 62.703125 0 
L 11.71875 0 
z
" id="DejaVuSans-Bold-49"/>
     <path d="M 10.59375 72.90625 
L 57.328125 72.90625 
L 57.328125 59.078125 
L 25.59375 59.078125 
L 25.59375 47.796875 
Q 27.734375 48.390625 29.90625 48.703125 
Q 32.078125 49.03125 34.421875 49.03125 
Q 47.75 49.03125 55.171875 42.359375 
Q 62.59375 35.6875 62.59375 23.78125 
Q 62.59375 11.96875 54.515625 5.265625 
Q 46.4375 -1.421875 32.078125 -1.421875 
Q 25.875 -1.421875 19.796875 -0.21875 
Q 13.71875 0.984375 7.71875 3.421875 
L 7.71875 18.21875 
Q 13.671875 14.796875 19.015625 13.078125 
Q 24.359375 11.375 29.109375 11.375 
Q 35.9375 11.375 39.859375 14.71875 
Q 43.796875 18.0625 43.796875 23.78125 
Q 43.796875 29.546875 39.859375 32.859375 
Q 35.9375 36.1875 29.109375 36.1875 
Q 25.046875 36.1875 20.453125 35.125 
Q 15.875 34.078125 10.59375 31.890625 
z
" id="DejaVuSans-Bold-53"/>
     <path d="M 5.421875 35.890625 
L 36.078125 35.890625 
L 36.078125 21.6875 
L 5.421875 21.6875 
z
" id="DejaVuSans-Bold-45"/>
     <path d="M 10.015625 1.609375 
L 10.015625 15.09375 
Q 14.5 12.984375 18.59375 11.9375 
Q 22.703125 10.890625 26.703125 10.890625 
Q 35.109375 10.890625 39.796875 15.546875 
Q 44.484375 20.21875 45.3125 29.390625 
Q 42 26.953125 38.234375 25.734375 
Q 34.46875 24.515625 30.078125 24.515625 
Q 18.890625 24.515625 12.03125 31.03125 
Q 5.171875 37.546875 5.171875 48.1875 
Q 5.171875 59.96875 12.8125 67.046875 
Q 20.453125 74.125 33.296875 74.125 
Q 47.5625 74.125 55.375 64.5 
Q 63.1875 54.890625 63.1875 37.3125 
Q 63.1875 19.234375 54.046875 8.90625 
Q 44.921875 -1.421875 29 -1.421875 
Q 23.875 -1.421875 19.1875 -0.65625 
Q 14.5 0.09375 10.015625 1.609375 
z
M 33.203125 36.71875 
Q 38.140625 36.71875 40.625 39.90625 
Q 43.109375 43.109375 43.109375 49.515625 
Q 43.109375 55.859375 40.625 59.078125 
Q 38.140625 62.3125 33.203125 62.3125 
Q 28.265625 62.3125 25.78125 59.078125 
Q 23.296875 55.859375 23.296875 49.515625 
Q 23.296875 43.109375 25.78125 39.90625 
Q 28.265625 36.71875 33.203125 36.71875 
z
" id="DejaVuSans-Bold-57"/>
     <path d="M 8.015625 -13.1875 
Q 14.265625 -1.5625 17.390625 9.515625 
Q 20.515625 20.609375 20.515625 31.390625 
Q 20.515625 42.1875 17.390625 53.25 
Q 14.265625 64.3125 8.015625 75.875 
L 22.515625 75.875 
Q 29.9375 63.921875 33.515625 52.953125 
Q 37.109375 42 37.109375 31.296875 
Q 37.109375 20.609375 33.546875 9.734375 
Q 29.984375 -1.125 22.515625 -13.1875 
z
" id="DejaVuSans-Bold-41"/>
    </defs>
    <g transform="translate(164.75625 20.877187)scale(0.18 -0.18)">
     <use xlink:href="#DejaVuSans-Bold-66"/>
     <use x="76.220703" xlink:href="#DejaVuSans-Bold-101"/>
     <use x="144.042969" xlink:href="#DejaVuSans-Bold-116"/>
     <use x="191.845703" xlink:href="#DejaVuSans-Bold-32"/>
     <use x="226.660156" xlink:href="#DejaVuSans-Bold-79"/>
     <use x="311.669922" xlink:href="#DejaVuSans-Bold-110"/>
     <use x="382.861328" xlink:href="#DejaVuSans-Bold-32"/>
     <use x="417.675781" xlink:href="#DejaVuSans-Bold-84"/>
     <use x="472.638672" xlink:href="#DejaVuSans-Bold-111"/>
     <use x="541.339844" xlink:href="#DejaVuSans-Bold-112"/>
     <use x="612.921875" xlink:href="#DejaVuSans-Bold-32"/>
     <use x="647.736328" xlink:href="#DejaVuSans-Bold-51"/>
     <use x="717.316406" xlink:href="#DejaVuSans-Bold-32"/>
     <use x="752.130859" xlink:href="#DejaVuSans-Bold-69"/>
     <use x="820.441406" xlink:href="#DejaVuSans-Bold-76"/>
     <use x="880.537109" xlink:href="#DejaVuSans-Bold-79"/>
     <use x="965.546875" xlink:href="#DejaVuSans-Bold-32"/>
     <use x="1000.361328" xlink:href="#DejaVuSans-Bold-70"/>
     <use x="1062.796875" xlink:href="#DejaVuSans-Bold-97"/>
     <use x="1130.277344" xlink:href="#DejaVuSans-Bold-118"/>
     <use x="1195.462891" xlink:href="#DejaVuSans-Bold-111"/>
     <use x="1264.164062" xlink:href="#DejaVuSans-Bold-114"/>
     <use x="1313.480469" xlink:href="#DejaVuSans-Bold-105"/>
     <use x="1347.757812" xlink:href="#DejaVuSans-Bold-116"/>
     <use x="1395.560547" xlink:href="#DejaVuSans-Bold-101"/>
     <use x="1463.382812" xlink:href="#DejaVuSans-Bold-115"/>
     <use x="1522.904297" xlink:href="#DejaVuSans-Bold-32"/>
     <use x="1557.71875" xlink:href="#DejaVuSans-Bold-40"/>
     <use x="1603.421875" xlink:href="#DejaVuSans-Bold-50"/>
     <use x="1673.001953" xlink:href="#DejaVuSans-Bold-48"/>
     <use x="1742.582031" xlink:href="#DejaVuSans-Bold-49"/>
     <use x="1812.162109" xlink:href="#DejaVuSans-Bold-53"/>
     <use x="1881.742188" xlink:href="#DejaVuSans-Bold-45"/>
     <use x="1923.246094" xlink:href="#DejaVuSans-Bold-50"/>
     <use x="1992.826172" xlink:href="#DejaVuSans-Bold-48"/>
     <use x="2062.40625" xlink:href="#DejaVuSans-Bold-49"/>
     <use x="2131.986328" xlink:href="#DejaVuSans-Bold-57"/>
     <use x="2201.566406" xlink:href="#DejaVuSans-Bold-41"/>
    </g>
   </g>
  </g>
 </g>
 <defs>
  <clipPath id="p01e986d62c">
   <rect height="349.92" width="626.4" x="53.80875" y="26.877187"/>
  </clipPath>
 </defs>
</svg>
